<svg width="30" height="30" viewBox="0 0 30 30" fill="none" xmlns="http://www.w3.org/2000/svg">
<path fill-rule="evenodd" clip-rule="evenodd" d="M30 20.0391C30 20.6863 29.4754 21.2109 28.8281 21.2109C28.1808 21.2109 27.6562 20.6863 27.6562 20.0391V16.2305C27.6562 15.5077 27.1156 14.9414 26.4258 14.9414H25.8215C25.4432 14.9414 25.088 14.7585 24.868 14.4507C24.6481 14.1426 24.5904 13.7473 24.7131 13.3894L25.6155 10.7581C25.8817 9.95682 25.8916 9.10675 25.6441 8.29948C25.6316 8.25829 25.6213 8.2164 25.6133 8.17406L24.6233 2.94685C24.5137 2.59964 24.3647 2.34375 24.2688 2.34375C24.1729 2.34375 24.0237 2.59987 23.914 2.94731L22.9111 8.20976C22.9033 8.25165 22.893 8.29285 22.8804 8.33359C22.638 9.12506 22.6431 9.96025 22.8948 10.7487L23.7726 13.4681C23.8877 13.8247 23.8255 14.2149 23.6048 14.5177C23.3844 14.8208 23.0322 15 22.6575 15H22.1484C21.4375 15 20.8594 15.5782 20.8594 16.2891V17.8711H24.3164C24.9637 17.8711 25.4883 18.3957 25.4883 19.043V23.7891C25.4883 24.4363 24.9637 24.9609 24.3164 24.9609H20.8594V25.8984C20.8594 26.8678 21.6479 27.6562 22.6172 27.6562H25.8984C26.8678 27.6562 27.6562 26.8678 27.6562 25.8984C27.6562 25.2512 28.1808 24.7266 28.8281 24.7266C29.4754 24.7266 30 25.2512 30 25.8984C30 28.16 28.16 30 25.8984 30H22.6172C21.4705 30 20.4325 29.5262 19.6875 28.765C18.9425 29.5262 17.9045 30 16.7578 30H13.2422C12.0955 30 11.0575 29.5262 10.3125 28.765C9.56749 29.5262 8.52951 30 7.38281 30H4.10156C1.83998 30 0 28.16 0 25.8984V16.1719C0 14.5532 1.08147 13.1824 2.55959 12.7444L2.16293 11.4555C1.77383 10.2333 1.7601 8.94035 2.12288 7.71149L3.12607 2.44675C3.13339 2.40829 3.14278 2.37053 3.15376 2.33299C3.75526 0.30304 5.05211 0 5.77148 0C6.49086 0 7.7877 0.30304 8.38921 2.33322C8.40042 2.37099 8.40981 2.40921 8.41713 2.44812L9.40727 7.67761C9.77852 8.936 9.75563 10.2573 9.34021 11.5036C9.33907 11.5068 9.33792 11.51 9.33701 11.5132L8.91563 12.7416C9.44183 12.8961 9.91745 13.1689 10.313 13.5287C10.7481 13.1282 11.2679 12.8483 11.8332 12.7059L11.4262 11.4725L11.4228 11.4619C11.0316 10.2377 11.0175 8.94241 11.3807 7.71149L12.3839 2.44675C12.3912 2.40829 12.4006 2.37053 12.4116 2.33299C13.0131 0.30304 14.3099 0 15.0293 0C15.7487 0 17.0455 0.30304 17.647 2.33322C17.6582 2.37099 17.6676 2.40921 17.6749 2.44812L18.6651 7.67761C19.0363 8.936 19.0134 10.2573 18.598 11.5036L18.5948 11.5132L18.1794 12.7245C18.7642 12.8835 19.2906 13.1857 19.7191 13.5905C20.1112 13.2372 20.5801 12.9678 21.0976 12.8112L20.6632 11.4654C20.2711 10.2377 20.257 8.94241 20.6202 7.71149L21.6234 2.44675C21.6307 2.40829 21.6399 2.37053 21.6511 2.33299C22.2526 0.30304 23.5492 0 24.2688 0C24.9882 0 26.285 0.30304 26.8865 2.33299C26.8977 2.37099 26.9071 2.40921 26.9144 2.44789L27.9046 7.67761C28.2758 8.93578 28.2529 10.2573 27.8375 11.5036L27.8341 11.5132L27.4152 12.735C28.0051 12.9034 28.5416 13.2234 28.979 13.6757C29.6375 14.3564 30 15.2639 30 16.2305V20.0391ZM13.8867 20.2148H11.4844V22.6172H13.8867V20.2148ZM2.34375 20.2148H4.62891V22.6172H2.34375V20.2148ZM4.10156 27.6562H7.38281C8.35213 27.6562 9.14062 26.8678 9.14062 25.8984V16.1719C9.14062 15.4935 8.58856 14.9414 7.91016 14.9414H7.32422C6.94565 14.9414 6.59065 14.7585 6.3707 14.4507C6.15074 14.1426 6.09306 13.7473 6.21574 13.3894L7.11823 10.7581C7.38441 9.95682 7.39426 9.10675 7.14684 8.29948C7.13425 8.25829 7.12395 8.2164 7.11594 8.17406L6.12602 2.94685C6.01662 2.59964 5.86739 2.34375 5.77148 2.34375C5.67558 2.34375 5.52635 2.59987 5.41649 2.94731L4.41376 8.20976C4.40598 8.25165 4.39568 8.29285 4.38309 8.33359C4.1407 9.12506 4.14574 9.96025 4.39751 10.7487C4.39888 10.7526 4.40002 10.7565 4.40117 10.7604L5.22148 13.4246C5.33112 13.7801 5.2652 14.1664 5.04433 14.4656C4.82323 14.7649 4.4735 14.9414 4.10156 14.9414H3.57422C2.89581 14.9414 2.34375 15.4935 2.34375 16.1719V17.8711H5.80078C6.44806 17.8711 6.97266 18.3957 6.97266 19.043V23.7891C6.97266 24.4363 6.44806 24.9609 5.80078 24.9609H2.34375V25.8984C2.34375 26.8678 3.13225 27.6562 4.10156 27.6562ZM16.7578 27.6562H13.2422C12.2729 27.6562 11.4844 26.8678 11.4844 25.8984V24.9609H15.0586C15.7059 24.9609 16.2305 24.4363 16.2305 23.7891V19.043C16.2305 18.3957 15.7059 17.8711 15.0586 17.8711H11.4844V16.2305C11.4844 15.5077 12.025 14.9414 12.7148 14.9414H13.418C13.794 14.9414 14.1472 14.761 14.3676 14.4562C14.588 14.1515 14.6487 13.7595 14.5308 13.4024L13.6537 10.7435C13.4035 9.95659 13.399 9.12346 13.6409 8.33382C13.6535 8.29308 13.6638 8.25165 13.6716 8.20976L14.6743 2.94754C14.7842 2.59987 14.9334 2.34375 15.0293 2.34375C15.1252 2.34375 15.2744 2.59964 15.3838 2.94685L16.3737 8.17406C16.3818 8.2164 16.3921 8.25829 16.4046 8.29948C16.6521 9.10675 16.6422 9.95682 16.376 10.7581L15.4736 13.3894C15.3509 13.7473 15.4086 14.1426 15.6285 14.4507C15.8485 14.7585 16.2035 14.9414 16.582 14.9414H17.2266C17.9375 14.9414 18.5156 15.5196 18.5156 16.2305V25.8984C18.5156 26.8678 17.7271 27.6562 16.7578 27.6562ZM20.8594 22.6172H23.1445V20.2148H20.8594V22.6172Z" fill="#5563DA"/>
</svg>
