<svg width="84" height="24" viewBox="0 0 84 24" fill="none" xmlns="http://www.w3.org/2000/svg">
<path fill-rule="evenodd" clip-rule="evenodd" d="M84 21.5942C84 22.9234 82.9186 24 81.5811 24H2.42205C1.08516 24 0 22.9234 0 21.5942V2.40892C0 1.0804 1.08516 0 2.42205 0H81.5805C82.9186 0 83.9994 1.0804 83.9994 2.40892L84 21.5942ZM18.4464 11.8685C18.4281 9.84402 20.1114 8.8591 20.1883 8.81325C19.235 7.42945 17.7575 7.24038 17.2382 7.22531C15.9972 7.09528 14.7935 7.96463 14.1613 7.96463C13.5165 7.96463 12.543 7.23787 11.4938 7.25923C10.1437 7.27995 8.88062 8.05822 8.18789 9.26676C6.75826 11.731 7.82449 15.3522 9.19418 17.344C9.87934 18.3195 10.68 19.4087 11.7279 19.3704C12.7531 19.3283 13.1361 18.7197 14.3733 18.7197C15.5991 18.7197 15.9587 19.3704 17.0275 19.3459C18.1278 19.3283 18.8205 18.366 19.4817 17.3817C20.2735 16.2636 20.5915 15.1625 20.6041 15.106C20.5782 15.0972 18.4672 14.295 18.4464 11.8685ZM16.4275 5.91485C16.9789 5.22829 17.3562 4.29425 17.2515 3.34638C16.4534 3.38156 15.4553 3.89601 14.8805 4.56749C14.372 5.1592 13.9178 6.12905 14.0351 7.04111C14.9316 7.10769 15.8521 6.59073 16.4275 5.91485ZM33.2834 19.2299H31.8506L31.0658 16.7745H28.3377L27.5901 19.2299H26.1952L28.898 10.8706H30.5674L33.2834 19.2299ZM30.8292 15.7442L30.1194 13.5615C30.0443 13.3385 29.9036 12.8133 29.6961 11.9867H29.6708C29.5882 12.3422 29.4551 12.8674 29.2721 13.5615L28.575 15.7442H30.8292ZM40.2341 16.1417C40.2341 17.1669 39.9559 17.9772 39.3994 18.572C38.901 19.1015 38.2821 19.366 37.5433 19.366C36.7458 19.366 36.173 19.0808 35.8241 18.5104H35.7989V21.6857H34.4538V15.1863C34.4538 14.5419 34.4367 13.8804 34.4039 13.202H35.5869L35.662 14.1574H35.6872C36.1358 13.4376 36.8165 13.0783 37.7301 13.0783C38.4442 13.0783 39.0405 13.3591 39.5174 13.9212C39.9956 14.4841 40.2341 15.224 40.2341 16.1417ZM38.8637 16.1908C38.8637 15.6041 38.7313 15.1205 38.465 14.7398C38.1742 14.3428 37.7836 14.1443 37.2941 14.1443C36.9622 14.1443 36.6606 14.2549 36.3912 14.4729C36.1212 14.6927 35.9445 14.9798 35.8619 15.3353C35.8203 15.5011 35.7994 15.6368 35.7994 15.7436V16.7486C35.7994 17.187 35.9345 17.557 36.2045 17.8592C36.4745 18.1613 36.8253 18.312 37.2568 18.312C37.7634 18.312 38.1578 18.1173 38.4398 17.7291C38.7224 17.3403 38.8637 16.8278 38.8637 16.1908ZM47.1974 16.1417C47.1974 17.1669 46.9192 17.9772 46.3621 18.572C45.8643 19.1015 45.2454 19.366 44.5066 19.366C43.7091 19.366 43.1363 19.0808 42.788 18.5104H42.7628V21.6857H41.4177V15.1863C41.4177 14.5419 41.4007 13.8804 41.3679 13.202H42.5508L42.6259 14.1574H42.6511C43.0991 13.4376 43.7798 13.0783 44.694 13.0783C45.4075 13.0783 46.0037 13.3591 46.482 13.9212C46.9583 14.4841 47.1974 15.224 47.1974 16.1417ZM45.8271 16.1908C45.8271 15.6041 45.6939 15.1205 45.4277 14.7398C45.1369 14.3428 44.7476 14.1443 44.2574 14.1443C43.9249 14.1443 43.6239 14.2549 43.3539 14.4729C43.0839 14.6927 42.9079 14.9798 42.8252 15.3353C42.7842 15.5011 42.7628 15.6368 42.7628 15.7436V16.7486C42.7628 17.187 42.8978 17.557 43.1665 17.8592C43.4366 18.1607 43.7873 18.312 44.2201 18.312C44.7268 18.312 45.1211 18.1173 45.4031 17.7291C45.6857 17.3403 45.8271 16.8278 45.8271 16.1908ZM54.9827 16.8855C54.9827 17.5965 54.7348 18.175 54.237 18.6216C53.69 19.1097 52.9285 19.3534 51.95 19.3534C51.0465 19.3534 50.3222 19.18 49.774 18.8327L50.0857 17.7165C50.6762 18.072 51.3241 18.2504 52.0301 18.2504C52.5367 18.2504 52.931 18.1361 53.2143 17.9087C53.4963 17.6813 53.637 17.376 53.637 16.9954C53.637 16.6562 53.5209 16.3704 53.2881 16.1386C53.0566 15.9068 52.6698 15.6914 52.1298 15.4922C50.6598 14.9464 49.9254 14.1468 49.9254 13.0953C49.9254 12.4081 50.1828 11.8446 50.6983 11.4062C51.2118 10.9671 51.897 10.7479 52.7538 10.7479C53.5178 10.7479 54.1525 10.8804 54.6591 11.1449L54.3228 12.2366C53.8496 11.9803 53.3146 11.8522 52.7159 11.8522C52.2427 11.8522 51.873 11.9684 51.608 12.1995C51.3841 12.4062 51.2718 12.6581 51.2718 12.9564C51.2718 13.2868 51.3998 13.5601 51.6572 13.7749C51.8812 13.9734 52.2881 14.1882 52.8787 14.42C53.6011 14.7096 54.1316 15.0481 54.473 15.4363C54.813 15.8233 54.9827 16.3076 54.9827 16.8855ZM59.4301 14.207H57.9474V17.1335C57.9474 17.8778 58.2086 18.2497 58.7323 18.2497C58.9726 18.2497 59.172 18.229 59.3297 18.1875L59.367 19.2045C59.102 19.3031 58.7531 19.3527 58.3209 19.3527C57.7897 19.3527 57.3746 19.1913 57.0749 18.869C56.7765 18.5462 56.6263 18.0047 56.6263 17.244V14.2057H55.743V13.2007H56.6263V12.0971L57.9474 11.7001V13.2007H59.4301V14.207ZM66.1195 16.1666C66.1195 17.0931 65.8533 17.8538 65.3221 18.4486C64.765 19.061 64.0255 19.3663 63.1038 19.3663C62.2155 19.3663 61.5082 19.073 60.9808 18.4863C60.4534 17.8996 60.1896 17.159 60.1896 16.2665C60.1896 15.3324 60.4609 14.5673 61.0054 13.9725C61.5486 13.377 62.2817 13.0793 63.2035 13.0793C64.0918 13.0793 64.8066 13.3726 65.346 13.9599C65.8621 14.5296 66.1195 15.2652 66.1195 16.1666ZM64.7239 16.2093C64.7239 15.6534 64.6047 15.1767 64.3631 14.7791C64.0811 14.2979 63.6779 14.058 63.1555 14.058C62.6148 14.058 62.2041 14.2985 61.9221 14.7791C61.6805 15.1773 61.5612 15.6616 61.5612 16.2345C61.5612 16.7904 61.6805 17.2671 61.9221 17.6641C62.2129 18.1453 62.6192 18.3852 63.1435 18.3852C63.6571 18.3852 64.0602 18.1402 64.3511 17.6515C64.599 17.2464 64.7239 16.7646 64.7239 16.2093ZM70.4917 14.3798C70.3586 14.3553 70.2166 14.3427 70.0677 14.3427C69.5945 14.3427 69.2286 14.5205 68.9712 14.8766C68.7472 15.1907 68.6349 15.5877 68.6349 16.067V19.2297H67.2905L67.3031 15.1003C67.3031 14.4055 67.2861 13.773 67.2526 13.2027H68.4242L68.4734 14.3559H68.5107C68.6526 13.9596 68.8766 13.6405 69.1832 13.4011C69.4829 13.1857 69.8065 13.0783 70.1554 13.0783C70.2797 13.0783 70.392 13.0871 70.4917 13.1028V14.3798ZM76.5074 15.9312C76.5074 16.1711 76.4916 16.3734 76.4582 16.5386H72.4229C72.4387 17.1341 72.6336 17.5895 73.0084 17.9035C73.3484 18.1843 73.7882 18.325 74.3282 18.325C74.9257 18.325 75.4708 18.2302 75.961 18.0398L76.1717 18.9695C75.5989 19.2182 74.9225 19.342 74.1421 19.342C73.2033 19.342 72.4664 19.0669 71.9302 18.5172C71.3951 17.9676 71.127 17.2295 71.127 16.3037C71.127 15.3947 71.3762 14.6378 71.8753 14.0342C72.3977 13.3897 73.1036 13.0675 73.992 13.0675C74.8645 13.0675 75.5251 13.3897 75.9736 14.0342C76.3288 14.5461 76.5074 15.1793 76.5074 15.9312ZM75.2248 15.5831C75.2336 15.1861 75.1459 14.8431 74.9636 14.5535C74.7308 14.1811 74.373 13.9951 73.8917 13.9951C73.4519 13.9951 73.0942 14.1767 72.821 14.541C72.597 14.8306 72.4639 15.1779 72.4229 15.5824H75.2248V15.5831ZM30.3844 5.72781C30.3844 6.46713 30.1617 7.02366 29.7169 7.39741C29.3049 7.74226 28.7194 7.91499 27.9611 7.91499C27.5851 7.91499 27.2633 7.89866 26.9939 7.866V3.82643C27.3453 3.76989 27.7239 3.741 28.1327 3.741C28.8551 3.741 29.3995 3.89741 29.7667 4.21022C30.1781 4.56386 30.3844 5.06952 30.3844 5.72781ZM29.6872 5.74611C29.6872 5.26684 29.5598 4.89938 29.3049 4.6431C29.05 4.38744 28.6778 4.2593 28.1876 4.2593C27.9794 4.2593 27.8021 4.27312 27.6551 4.30201V7.37299C27.7365 7.38556 27.8854 7.39121 28.1018 7.39121C28.6078 7.39121 28.9983 7.25113 29.2734 6.97098C29.5484 6.69083 29.6872 6.28254 29.6872 5.74611ZM34.0809 6.37345C34.0809 6.82885 33.9503 7.20196 33.6891 7.49468C33.4153 7.79556 33.0525 7.94568 32.5995 7.94568C32.1629 7.94568 31.8153 7.80184 31.556 7.51289C31.2973 7.22458 31.168 6.86088 31.168 6.42244C31.168 5.9639 31.3011 5.58764 31.5686 5.29556C31.8361 5.00347 32.1957 4.85712 32.6487 4.85712C33.0853 4.85712 33.4361 5.00096 33.7017 5.28928C33.954 5.56943 34.0809 5.93124 34.0809 6.37345ZM33.3951 6.39528C33.3951 6.12203 33.3358 5.88774 33.2178 5.69239C33.079 5.45621 32.8815 5.33811 32.6248 5.33811C32.3592 5.33811 32.1573 5.45621 32.0185 5.69239C31.8999 5.88774 31.8412 6.1258 31.8412 6.40721C31.8412 6.68045 31.9005 6.91475 32.0185 7.1101C32.1617 7.34628 32.3611 7.46437 32.6185 7.46437C32.8708 7.46437 33.0689 7.3444 33.2115 7.10382C33.3339 6.9047 33.3951 6.66852 33.3951 6.39528ZM39.0373 4.91798L38.1067 7.87903H37.501L37.1156 6.59323C37.0178 6.27225 36.9383 5.95315 36.8764 5.63657H36.8645C36.807 5.96195 36.7276 6.28041 36.6253 6.59323L36.2159 7.87903H35.6033L34.7282 4.91798H35.4077L35.744 6.32564C35.8254 6.65855 35.8922 6.97577 35.9459 7.27602H35.9578C36.0071 7.02853 36.0884 6.7132 36.2033 6.33192L36.6253 4.9186H37.1641L37.5685 6.30177C37.6663 6.63908 37.7458 6.96383 37.807 7.27664H37.8253C37.8701 6.972 37.9376 6.64725 38.0272 6.30177L38.3881 4.9186H39.0373V4.91798ZM42.465 7.87839H41.8038V6.18241C41.8038 5.6598 41.6044 5.39849 41.2044 5.39849C41.0082 5.39849 40.8499 5.4701 40.7268 5.61395C40.6051 5.75779 40.5433 5.92739 40.5433 6.12148V7.87777H39.8821V5.76344C39.8821 5.50339 39.8739 5.22136 39.8581 4.91608H40.4392L40.4701 5.37902H40.4884C40.5653 5.23518 40.6802 5.11646 40.8309 5.02161C41.0101 4.91106 41.2108 4.85515 41.4303 4.85515C41.7079 4.85515 41.9388 4.94435 42.1224 5.12337C42.3508 5.34259 42.465 5.66985 42.465 6.10452V7.87839ZM44.2883 7.87912H43.6277V3.5594H44.2883V7.87912ZM48.181 6.37345C48.181 6.82885 48.0504 7.20196 47.7892 7.49468C47.5154 7.79556 47.152 7.94568 46.6996 7.94568C46.2624 7.94568 45.9147 7.80184 45.6561 7.51289C45.3974 7.22458 45.2681 6.86088 45.2681 6.42244C45.2681 5.9639 45.4012 5.58764 45.6687 5.29556C45.9362 5.00347 46.2958 4.85712 46.7482 4.85712C47.1854 4.85712 47.5355 5.00096 47.8018 5.28928C48.0541 5.56943 48.181 5.93124 48.181 6.37345ZM47.4946 6.39528C47.4946 6.12203 47.4353 5.88774 47.3173 5.69239C47.1791 5.45621 46.981 5.33811 46.7249 5.33811C46.4586 5.33811 46.2567 5.45621 46.1186 5.69239C46 5.88774 45.9413 6.1258 45.9413 6.40721C45.9413 6.68045 46.0006 6.91475 46.1186 7.1101C46.2618 7.34628 46.4612 7.46437 46.7186 7.46437C46.9709 7.46437 47.1684 7.3444 47.311 7.10382C47.434 6.9047 47.4946 6.66852 47.4946 6.39528ZM51.3809 7.87847H50.7873L50.738 7.53739H50.7197C50.5166 7.80938 50.227 7.94568 49.851 7.94568C49.5702 7.94568 49.3431 7.85586 49.1721 7.67747C49.0169 7.51541 48.9393 7.31377 48.9393 7.07445C48.9393 6.71264 49.0907 6.43689 49.3955 6.24593C49.6996 6.05498 50.1273 5.96139 50.6781 5.96578V5.91051C50.6781 5.52043 50.4724 5.32571 50.0605 5.32571C49.7671 5.32571 49.5084 5.3992 49.2851 5.54493L49.1507 5.11277C49.427 4.94254 49.7683 4.85712 50.1709 4.85712C50.9481 4.85712 51.338 5.26541 51.338 6.08199V7.17244C51.338 7.4683 51.3525 7.70385 51.3809 7.87847ZM50.6945 6.86138V6.40473C49.9652 6.39216 49.6005 6.59128 49.6005 7.00146C49.6005 7.15598 49.6422 7.27156 49.7273 7.34882C49.8125 7.42608 49.921 7.4644 50.0504 7.4644C50.1955 7.4644 50.3311 7.41855 50.4548 7.32747C50.5791 7.23576 50.6554 7.11955 50.6838 6.97696C50.6907 6.94493 50.6945 6.90598 50.6945 6.86138ZM55.138 7.87912H54.5512L54.5203 7.40362H54.502C54.3146 7.76543 53.9954 7.94633 53.5468 7.94633C53.1885 7.94633 52.89 7.80626 52.6535 7.52611C52.4169 7.24596 52.2989 6.88226 52.2989 6.43565C52.2989 5.95638 52.427 5.56819 52.6844 5.27171C52.9336 4.99533 53.2389 4.85714 53.6023 4.85714C54.0017 4.85714 54.2812 4.99093 54.4402 5.25915H54.4528V3.5594H55.1146V7.08138C55.1146 7.3697 55.1222 7.6354 55.138 7.87912ZM54.4528 6.62985V6.13613C54.4528 6.05071 54.4465 5.98161 54.4345 5.92885C54.3973 5.77056 54.3172 5.63739 54.1954 5.52998C54.0724 5.42257 53.9241 5.36855 53.7532 5.36855C53.5065 5.36855 53.3134 5.46591 53.1715 5.66126C53.0308 5.85661 52.9595 6.10598 52.9595 6.41063C52.9595 6.70334 53.027 6.94078 53.1626 7.12357C53.3058 7.31829 53.4989 7.41566 53.7405 7.41566C53.9576 7.41566 54.1311 7.33463 54.2629 7.17194C54.3904 7.02181 54.4528 6.84091 54.4528 6.62985ZM60.7928 6.37345C60.7928 6.82885 60.6622 7.20196 60.401 7.49468C60.1272 7.79556 59.765 7.94568 59.3114 7.94568C58.8755 7.94568 58.5278 7.80184 58.2679 7.51289C58.0092 7.22458 57.8799 6.86088 57.8799 6.42244C57.8799 5.9639 58.013 5.58764 58.2805 5.29556C58.548 5.00347 58.9076 4.85712 59.3612 4.85712C59.7972 4.85712 60.1486 5.00096 60.4136 5.28928C60.666 5.56943 60.7928 5.93124 60.7928 6.37345ZM60.1076 6.39528C60.1076 6.12203 60.0483 5.88774 59.9303 5.69239C59.7909 5.45621 59.594 5.33811 59.3366 5.33811C59.0716 5.33811 58.8698 5.45621 58.7303 5.69239C58.6117 5.88774 58.553 6.1258 58.553 6.40721C58.553 6.68045 58.6123 6.91475 58.7303 7.1101C58.8735 7.34628 59.0729 7.46437 59.3303 7.46437C59.5827 7.46437 59.7814 7.3444 59.924 7.10382C60.0458 6.9047 60.1076 6.66852 60.1076 6.39528ZM64.3479 7.87839H63.6874V6.18241C63.6874 5.6598 63.488 5.39849 63.0874 5.39849C62.8911 5.39849 62.7328 5.4701 62.6104 5.61395C62.488 5.75779 62.4268 5.92739 62.4268 6.12148V7.87777H61.765V5.76344C61.765 5.50339 61.7574 5.22136 61.7416 4.91608H62.3221L62.353 5.37902H62.3713C62.4489 5.23518 62.5637 5.11646 62.7139 5.02161C62.8937 4.91106 63.0937 4.85515 63.3139 4.85515C63.5908 4.85515 63.8217 4.94435 64.0053 5.12337C64.2343 5.34259 64.3479 5.66985 64.3479 6.10452V7.87839ZM68.7977 5.41032H68.0697V6.84876C68.0697 7.21434 68.199 7.39713 68.4551 7.39713C68.5737 7.39713 68.6722 7.38708 68.7498 7.36635L68.7668 7.86572C68.6362 7.91471 68.4646 7.93921 68.2533 7.93921C67.9921 7.93921 67.7889 7.86006 67.6419 7.70177C67.4943 7.54348 67.4211 7.27715 67.4211 6.90341V5.41032H66.9864V4.91723H67.4211V4.37451L68.069 4.17979V4.9166H68.7971V5.41032H68.7977ZM72.298 7.87912H71.6361V6.1957C71.6361 5.66493 71.4368 5.39922 71.0374 5.39922C70.7308 5.39922 70.5213 5.55312 70.4065 5.86091C70.3869 5.9256 70.3756 6.00475 70.3756 6.09771V7.87849H69.715V3.5594H70.3756V5.34395H70.3882C70.5964 5.0192 70.8948 4.85714 71.2816 4.85714C71.5554 4.85714 71.7819 4.94633 71.9617 5.12535C72.1857 5.34834 72.298 5.68 72.298 6.11844V7.87912ZM75.9087 6.25861C75.9087 6.3767 75.8998 6.47595 75.884 6.55698H73.9011C73.9099 6.84969 74.0046 7.07268 74.1882 7.22721C74.356 7.3654 74.5724 7.43449 74.8374 7.43449C75.1307 7.43449 75.3982 7.38801 75.6393 7.29442L75.7427 7.7517C75.4607 7.87356 75.1289 7.93449 74.7446 7.93449C74.2841 7.93449 73.9213 7.79944 73.6588 7.52934C73.3951 7.25924 73.2645 6.8968 73.2645 6.44203C73.2645 5.99542 73.3863 5.62356 73.6317 5.32708C73.8879 5.0105 74.2342 4.85221 74.6714 4.85221C75.0992 4.85221 75.4241 5.0105 75.6437 5.32708C75.821 5.57834 75.9087 5.88927 75.9087 6.25861ZM75.2778 6.08784C75.2828 5.89248 75.2393 5.72414 75.1497 5.58218C75.0349 5.39939 74.8601 5.30768 74.6235 5.30768C74.4077 5.30768 74.2317 5.39688 74.0973 5.5759C73.9876 5.71849 73.9226 5.88871 73.9011 6.08784H75.2778Z" fill="#235D99"/>
</svg>
