<svg width="30" height="30" viewBox="0 0 30 30" fill="none" xmlns="http://www.w3.org/2000/svg">
<path fill-rule="evenodd" clip-rule="evenodd" d="M28.6294 17.6773C28.1717 17.2195 27.4298 17.2195 26.9721 17.6773C26.5145 18.1348 26.5145 18.8769 26.9721 19.3344C27.886 20.2481 27.886 21.735 26.9721 22.6487L22.6523 26.9684C22.2097 27.4111 21.6212 27.6548 20.9952 27.6548C20.3692 27.6548 19.7807 27.4111 19.3362 26.9668L16.645 24.2863L28.6258 12.3214C29.5111 11.436 29.9986 10.2591 29.9986 9.00687C29.9986 7.75486 29.5111 6.57794 28.6258 5.69261L24.306 1.37285C23.4207 0.487526 22.2435 0 20.9915 0C19.7395 0 18.5626 0.487526 17.6773 1.37285L14.9934 4.0531L12.3209 1.37285C10.4932 -0.454566 7.5198 -0.454795 5.69215 1.37285L1.37285 5.69192C0.487526 6.57748 0 7.75486 0 9.00687C0.000228885 10.2591 0.487984 11.4363 1.37331 12.3211L4.04143 14.9908L1.36667 17.6619C-0.444038 19.4797 -0.449302 22.4424 1.355 24.2664L5.65118 28.6095C6.53628 29.5045 7.71687 29.9984 8.97528 30.0005H8.98375C10.2392 30.0005 11.4179 29.5109 12.3021 28.6235L14.9865 25.9426L17.6809 28.6258C18.5663 29.5111 19.7432 29.9986 20.9952 29.9986C22.2474 29.9986 23.4244 29.5111 24.3097 28.6258L28.6294 24.306C30.4569 22.4784 30.4569 19.5047 28.6294 17.6773ZM3.03044 10.664C2.58755 10.2213 2.34378 9.63287 2.34355 9.00664C2.34355 8.38064 2.58732 7.79194 3.03021 7.34928L7.34928 3.02998C8.26299 2.11627 9.74983 2.11627 10.6624 3.02884L13.3351 5.70931L5.6997 13.3346L3.03044 10.664ZM8.98375 27.6569C9.61135 27.6569 10.2007 27.412 10.6439 26.9673L22.6294 14.9977L17.526 9.90181C17.068 9.4445 17.0675 8.70268 17.5246 8.24468C17.9819 7.78668 18.724 7.78599 19.182 8.24331L24.2875 13.3415L26.9691 10.6638C27.4111 10.2216 27.6551 9.6331 27.6551 9.0071C27.6551 8.38109 27.4111 7.7924 26.9684 7.34974L22.6489 3.02998C22.2062 2.58755 21.6175 2.34356 20.9915 2.34356C20.3655 2.34356 19.7771 2.58755 19.3344 3.02998L19.3341 3.03026L19.3339 3.03067L7.35638 14.9922L12.5045 20.1433C12.962 20.6011 12.9618 21.3431 12.504 21.8004C12.2754 22.0291 11.9753 22.1435 11.6757 22.1435C11.3756 22.1435 11.0758 22.0291 10.8469 21.8L5.6981 16.6484L3.02495 19.3181C2.12154 20.225 2.11902 21.7063 3.02106 22.6184L7.31747 26.9613C7.7599 27.4088 8.3502 27.6558 8.9794 27.6569H8.98375ZM18.9249 14.9993C18.9249 15.6466 18.4003 16.1712 17.753 16.1712C17.106 16.1712 16.5814 15.6466 16.5814 14.9993C16.5814 14.352 17.106 13.8274 17.753 13.8274C18.4003 13.8274 18.9249 14.352 18.9249 14.9993ZM15.0579 13.4173C15.7052 13.4173 16.2298 12.8927 16.2298 12.2456C16.2298 11.5983 15.7052 11.0737 15.0579 11.0737C14.4106 11.0737 13.886 11.5983 13.886 12.2456C13.886 12.8927 14.4106 13.4173 15.0579 13.4173ZM15.8782 18.046C15.8782 18.6933 15.3536 19.2179 14.7063 19.2179C14.0593 19.2179 13.5344 18.6933 13.5344 18.046C13.5344 17.3987 14.0593 16.8741 14.7063 16.8741C15.3536 16.8741 15.8782 17.3987 15.8782 18.046ZM12.0112 16.4642C12.6583 16.4642 13.1831 15.9393 13.1831 15.2923C13.1831 14.645 12.6583 14.1204 12.0112 14.1204C11.3639 14.1204 10.8393 14.645 10.8393 15.2923C10.8393 15.9393 11.3639 16.4642 12.0112 16.4642Z" fill="#5563DA"/>
</svg>
