<svg width="30" height="25" viewBox="0 0 30 25" fill="none" xmlns="http://www.w3.org/2000/svg">
<path d="M22.2956 12.5L17.5 16.8416" stroke="#5563DA" stroke-width="2" stroke-linecap="round"/>
<path d="M14.2189 4.34794L15.0236 5.35442L15.7988 4.32495C17.3398 2.27835 19.366 1 21.8985 1C25.8574 1 29 4.07768 29 7.79352C29 9.76079 28.1552 11.1839 26.4942 12.9723C25.0795 14.4267 22.1177 17.2395 19.46 19.7018C18.1314 20.9327 16.8864 22.069 15.9582 22.8959C15.5833 23.23 15.2638 23.5102 15.0131 23.7245C14.6717 23.4237 14.2046 23.0006 13.6497 22.4915C12.4955 21.4324 10.9801 20.0182 9.4707 18.6015C7.9619 17.1853 6.46151 15.769 5.33815 14.7064C4.77652 14.1752 4.30923 13.7326 3.98238 13.4227L3.60321 13.0632L3.50344 12.9685L3.48739 12.9533C1.85351 11.2368 1 9.76156 1 7.79352C1 4.07751 4.14173 1 8.10048 1C10.6189 1 12.5529 2.26433 14.2189 4.34794Z" stroke="#5563DA" stroke-width="2"/>
</svg>
