<svg width="40" height="41" viewBox="0 0 40 41" fill="none" xmlns="http://www.w3.org/2000/svg">
<circle cx="20" cy="20.5" r="20" fill="white"/>
<path fill-rule="evenodd" clip-rule="evenodd" d="M20 20.4998C17.6988 20.4998 15.8333 18.6344 15.8333 16.3332C15.8333 14.032 17.6988 12.1665 20 12.1665C22.3012 12.1665 24.1667 14.032 24.1667 16.3332C24.1667 18.6344 22.3012 20.4998 20 20.4998ZM27.5 27.9998V26.3332C27.5 24.032 25.6345 22.1665 23.3333 22.1665H16.6667C14.3655 22.1665 12.5 24.032 12.5 26.3332V27.9998C12.5 28.4601 12.8731 28.8332 13.3333 28.8332C13.7936 28.8332 14.1667 28.4601 14.1667 27.9998V26.3332C14.1667 24.9525 15.286 23.8332 16.6667 23.8332H23.3333C24.714 23.8332 25.8333 24.9525 25.8333 26.3332V27.9998C25.8333 28.4601 26.2064 28.8332 26.6667 28.8332C27.1269 28.8332 27.5 28.4601 27.5 27.9998ZM22.5 16.3332C22.5 17.7139 21.3807 18.8332 20 18.8332C18.6193 18.8332 17.5 17.7139 17.5 16.3332C17.5 14.9525 18.6193 13.8332 20 13.8332C21.3807 13.8332 22.5 14.9525 22.5 16.3332Z" fill="#235D99"/>
<mask id="mask0_1580_2585" style="mask-type:alpha" maskUnits="userSpaceOnUse" x="12" y="12" width="16" height="17">
<path fill-rule="evenodd" clip-rule="evenodd" d="M20 20.4998C17.6988 20.4998 15.8333 18.6344 15.8333 16.3332C15.8333 14.032 17.6988 12.1665 20 12.1665C22.3012 12.1665 24.1667 14.032 24.1667 16.3332C24.1667 18.6344 22.3012 20.4998 20 20.4998ZM27.5 27.9998V26.3332C27.5 24.032 25.6345 22.1665 23.3333 22.1665H16.6667C14.3655 22.1665 12.5 24.032 12.5 26.3332V27.9998C12.5 28.4601 12.8731 28.8332 13.3333 28.8332C13.7936 28.8332 14.1667 28.4601 14.1667 27.9998V26.3332C14.1667 24.9525 15.286 23.8332 16.6667 23.8332H23.3333C24.714 23.8332 25.8333 24.9525 25.8333 26.3332V27.9998C25.8333 28.4601 26.2064 28.8332 26.6667 28.8332C27.1269 28.8332 27.5 28.4601 27.5 27.9998ZM22.5 16.3332C22.5 17.7139 21.3807 18.8332 20 18.8332C18.6193 18.8332 17.5 17.7139 17.5 16.3332C17.5 14.9525 18.6193 13.8332 20 13.8332C21.3807 13.8332 22.5 14.9525 22.5 16.3332Z" fill="white"/>
</mask>
<g mask="url(#mask0_1580_2585)">
<rect x="10" y="10.5" width="20" height="20" fill="#235D99"/>
</g>
</svg>
