<svg width="24" height="24" viewBox="0 0 24 24" fill="none" xmlns="http://www.w3.org/2000/svg">
<path d="M19.3456 18.3947L19.3449 18.3956C19.1504 18.6367 18.9421 18.8692 18.7227 19.0904C17.826 20.0067 16.7637 20.7371 15.5945 21.241C14.383 21.7634 13.0807 22.0315 11.7654 22.0291M19.3456 18.3947L11.7656 21.8791M19.3456 18.3947C19.3988 18.3277 19.4784 18.2895 19.5643 18.2895H21.486M19.3456 18.3947L21.486 18.2895M11.7654 22.0291L11.7656 21.8791M11.7654 22.0291C11.7655 22.0291 11.7655 22.0291 11.7656 22.0291V21.8791M11.7654 22.0291C10.4357 22.029 9.14728 21.7626 7.93678 21.241L7.93675 21.241C6.76753 20.737 5.70523 20.0066 4.80852 19.0903M11.7656 21.8791C10.4563 21.8791 9.18794 21.6167 7.99613 21.1033C6.84485 20.607 5.79868 19.8877 4.91546 18.9851M4.80852 19.0903L4.91546 18.9851M4.80852 19.0903C4.80843 19.0902 4.80834 19.0901 4.80825 19.09L4.91546 18.9851M4.80852 19.0903C3.91015 18.177 3.19396 17.0946 2.69948 15.9032C2.18604 14.6678 1.92808 13.3561 1.92808 12C1.92808 10.6437 2.18885 9.33217 2.69937 8.09714L2.69941 8.09705C3.19334 6.90439 3.90384 5.83051 4.80846 4.90979C5.71289 3.98928 6.76499 3.26362 7.9368 2.75901C9.14738 2.23744 10.4359 1.97097 11.7656 1.97097C13.0951 1.97097 14.3837 2.23455 15.5946 2.75908C16.7664 3.26369 17.8184 3.98932 18.7228 4.90979L18.723 4.90995C18.9424 5.13402 19.1475 5.36608 19.3437 5.60298L19.3456 5.60533L19.3456 5.60535C19.3985 5.67199 19.4806 5.7105 19.5643 5.7105H21.486C21.5374 5.7105 21.5754 5.64849 21.5432 5.59871L21.5422 5.59723C19.4716 2.31182 15.8499 0.139025 11.736 0.150042L11.736 0.150042C5.2726 0.166566 0.0857961 5.52356 0.150601 12.1213L4.91546 18.9851M21.486 18.2895C21.5339 18.2895 21.5757 18.3496 21.5421 18.403C19.4741 21.6801 15.8687 23.85 11.7656 23.85C5.39418 23.85 0.215425 18.614 0.150601 12.1213L21.486 18.2895ZM23.822 11.941L23.8225 11.9414C23.8307 11.948 23.8377 11.9566 23.8425 11.9668C23.8474 11.977 23.85 11.9884 23.85 12C23.85 12.0116 23.8474 12.023 23.8425 12.0332C23.8377 12.0434 23.8307 12.052 23.8225 12.0586L23.822 12.059L19.9431 15.1846L19.9418 15.1857C19.9208 15.203 19.8963 15.2048 19.8729 15.1932C19.849 15.1814 19.8319 15.1579 19.8319 15.1256V13.0047V12.8547H19.6819H11.0987C11.0641 12.8547 11.03 12.8243 11.03 12.7814V11.2186C11.03 11.1757 11.0641 11.1454 11.0987 11.1454H19.6819H19.8319V10.9954V8.87444C19.8319 8.80577 19.9022 8.78229 19.9429 8.81525L19.9431 8.81543L23.822 11.941Z" fill="black" fill-opacity="0.7" stroke="white" stroke-width="0.3"/>
</svg>
