<svg xmlns="http://www.w3.org/2000/svg" width="64" height="80" viewBox="0 0 64 80" fill="none">
<path d="M33.3382 80H30.6614C30.6614 76.1516 27.174 72.7771 23.1988 72.7771H7.99253C5.86712 72.7569 3.83555 71.906 2.33907 70.4093C0.842593 68.9125 0.00205808 66.8908 0 64.7832V0H64V64.7799C64.0002 66.8827 63.1648 68.9009 61.6748 70.3972C60.1848 71.8935 58.1602 72.7473 56.0398 72.7738H40.8012C36.8256 72.7758 33.3382 76.1516 33.3382 80ZM23.1988 70.1236C24.9862 70.1566 26.7348 70.6455 28.2763 71.5432C29.8179 72.4408 31.1002 73.7169 32 75.2487C32.8998 73.717 34.1822 72.4408 35.7237 71.5432C37.2652 70.6456 39.0138 70.1567 40.8012 70.1236H56.0075C57.4231 70.103 58.7738 69.5313 59.7682 68.532C60.7626 67.5327 61.321 66.1858 61.3229 64.7819V2.65666H2.67918V64.7819C2.68298 66.1903 3.24603 67.5406 4.24646 68.5404C5.24689 69.5401 6.60418 70.1089 8.02446 70.1236H23.1988Z" fill="#ffffff"/>
<path d="M50.0407 57.5466C50.5324 57.5465 51.004 57.3528 51.3517 57.008C51.6994 56.6632 51.8948 56.1956 51.8949 55.708V37.2327C51.8949 26.0133 45.7189 16.9185 31.4084 16.9185H27.5265C27.0347 16.9185 26.563 17.1122 26.2152 17.4569C25.8674 17.8017 25.672 18.2694 25.6719 18.7571V25.3011C25.6718 25.5425 25.7197 25.7815 25.8128 26.0046C25.9059 26.2276 26.0424 26.4303 26.2145 26.601C26.3866 26.7718 26.591 26.9072 26.8158 26.9996C27.0407 27.0921 27.2818 27.1397 27.5252 27.1397C29.2186 27.1397 30.3395 27.1397 31.4084 27.1425C39.6432 27.1681 41.5841 31.6601 41.5841 37.2327C41.5841 37.8544 41.5775 50.824 41.5755 55.708C41.5753 55.9495 41.6232 56.1887 41.7163 56.4118C41.8094 56.6349 41.946 56.8377 42.1182 57.0084C42.2904 57.1792 42.4949 57.3146 42.7199 57.407C42.9449 57.4993 43.1861 57.5468 43.4297 57.5466H50.0407Z" fill="#346DF2"/>
<path d="M21.4127 17.0488H13.3965C12.7557 17.0488 12.2363 17.5639 12.2363 18.1992V26.1481C12.2363 26.7834 12.7557 27.2985 13.3965 27.2985H21.4127C22.0535 27.2985 22.5729 26.7834 22.5729 26.1481V18.1992C22.5729 17.5639 22.0535 17.0488 21.4127 17.0488Z" fill="#346DF2"/>
<path d="M13.9601 30.3931C13.4683 30.3931 12.9966 30.5868 12.6488 30.9316C12.301 31.2763 12.1056 31.744 12.1055 32.2317V37.9256C12.1055 49.1451 18.2815 57.5468 32.592 57.5468H36.4739C36.9657 57.5468 37.4373 57.3531 37.7851 57.0083C38.1329 56.6635 38.3284 56.1959 38.3285 55.7082V49.1646C38.3286 48.9231 38.2807 48.684 38.1877 48.461C38.0946 48.2379 37.9581 48.0351 37.786 47.8644C37.6138 47.6936 37.4095 47.5581 37.1846 47.4657C36.9597 47.3732 36.7186 47.3256 36.4751 47.3256C34.7817 47.3256 33.6609 47.3256 32.592 47.3227C24.3572 47.2976 22.4163 43.4982 22.4163 37.9256C22.4163 37.3129 22.4224 35.5907 22.4249 32.2382C22.4241 31.7502 22.2287 31.2823 21.8813 30.9366C21.534 30.5909 21.0628 30.3955 20.5707 30.3931H13.9601Z" fill="#346DF2"/>
</svg>