<svg width="40" height="40" viewBox="0 0 40 40" fill="none" xmlns="http://www.w3.org/2000/svg">
<circle cx="20" cy="20" r="20" fill="#0641C9"/>
<path fill-rule="evenodd" clip-rule="evenodd" d="M20 19.9998C17.6988 19.9998 15.8333 18.1344 15.8333 15.8332C15.8333 13.532 17.6988 11.6665 20 11.6665C22.3012 11.6665 24.1667 13.532 24.1667 15.8332C24.1667 18.1344 22.3012 19.9998 20 19.9998ZM27.5 27.4998V25.8332C27.5 23.532 25.6345 21.6665 23.3333 21.6665H16.6667C14.3655 21.6665 12.5 23.532 12.5 25.8332V27.4998C12.5 27.9601 12.8731 28.3332 13.3333 28.3332C13.7936 28.3332 14.1667 27.9601 14.1667 27.4998V25.8332C14.1667 24.4525 15.286 23.3332 16.6667 23.3332H23.3333C24.714 23.3332 25.8333 24.4525 25.8333 25.8332V27.4998C25.8333 27.9601 26.2064 28.3332 26.6667 28.3332C27.1269 28.3332 27.5 27.9601 27.5 27.4998ZM22.5 15.8332C22.5 17.2139 21.3807 18.3332 20 18.3332C18.6193 18.3332 17.5 17.2139 17.5 15.8332C17.5 14.4525 18.6193 13.3332 20 13.3332C21.3807 13.3332 22.5 14.4525 22.5 15.8332Z" fill="white"/>
<mask id="mask0_364_5064" style="mask-type:alpha" maskUnits="userSpaceOnUse" x="12" y="11" width="16" height="18">
<path fill-rule="evenodd" clip-rule="evenodd" d="M20 19.9998C17.6988 19.9998 15.8333 18.1344 15.8333 15.8332C15.8333 13.532 17.6988 11.6665 20 11.6665C22.3012 11.6665 24.1667 13.532 24.1667 15.8332C24.1667 18.1344 22.3012 19.9998 20 19.9998ZM27.5 27.4998V25.8332C27.5 23.532 25.6345 21.6665 23.3333 21.6665H16.6667C14.3655 21.6665 12.5 23.532 12.5 25.8332V27.4998C12.5 27.9601 12.8731 28.3332 13.3333 28.3332C13.7936 28.3332 14.1667 27.9601 14.1667 27.4998V25.8332C14.1667 24.4525 15.286 23.3332 16.6667 23.3332H23.3333C24.714 23.3332 25.8333 24.4525 25.8333 25.8332V27.4998C25.8333 27.9601 26.2064 28.3332 26.6667 28.3332C27.1269 28.3332 27.5 27.9601 27.5 27.4998ZM22.5 15.8332C22.5 17.2139 21.3807 18.3332 20 18.3332C18.6193 18.3332 17.5 17.2139 17.5 15.8332C17.5 14.4525 18.6193 13.3332 20 13.3332C21.3807 13.3332 22.5 14.4525 22.5 15.8332Z" fill="white"/>
</mask>
<g mask="url(#mask0_364_5064)">
<rect x="10" y="10" width="20" height="20" fill="white"/>
</g>
</svg>
