<svg width="69" height="69" viewBox="0 0 69 69" fill="none" xmlns="http://www.w3.org/2000/svg">
<rect width="69" height="69" rx="7" fill="#0641C9"/>
<path d="M25.9119 20.3162C22.1257 21.6338 24.2291 24.0494 25.9119 23.1709C34.312 19.4355 39.0452 21.1676 40.7096 22.7807C39.1005 18.6572 29.6981 18.9986 25.9119 20.3162Z" fill="#E6EDFD"/>
<ellipse cx="32.6337" cy="15.4951" rx="3.36908" ry="3.49506" fill="#E6EDFD"/>
<path d="M44.1631 20.7997C41.6403 17.5882 40.2023 20.4815 41.5878 21.8056C47.9175 28.6447 48.0229 33.8502 47.1542 36.0345C50.3071 33.0194 46.6859 24.0112 44.1631 20.7997Z" fill="#E6EDFD"/>
<ellipse rx="3.47967" ry="3.38498" transform="matrix(0.341177 0.939999 -0.931463 0.363836 50.8828 25.626)" fill="#E6EDFD"/>
<path d="M49.9515 38.6653C52.5954 35.5603 49.6095 34.5594 48.5756 36.1931C43.1012 43.7851 38.1674 44.7402 35.9485 44.2065C39.3294 46.943 47.3077 41.7703 49.9515 38.6653Z" fill="#E6EDFD"/>
<ellipse rx="3.40101" ry="3.464" transform="matrix(-0.857894 0.513827 -0.486299 -0.873792 46.4554 46.3281)" fill="#E6EDFD"/>
<path d="M35.0843 48.9253C38.9134 50.1021 38.5285 46.8715 36.6646 46.5882C27.7199 44.642 24.8037 40.4044 24.3341 38.0922C23.3688 42.4266 31.2553 47.7484 35.0843 48.9253Z" fill="#E6EDFD"/>
<ellipse rx="3.41114" ry="3.45403" transform="matrix(-0.80858 -0.588386 0.560135 -0.828402 26.9099 48.8689)" fill="#E6EDFD"/>
<path d="M20.2943 38.9419C20.5412 43.0768 23.3348 41.5943 22.9523 39.6807C21.6485 30.2967 24.4862 26.0021 26.419 24.7518C22.1631 25.2969 20.0474 34.807 20.2943 38.9419Z" fill="#E6EDFD"/>
<ellipse rx="3.48677" ry="3.37767" transform="matrix(0.250083 -0.968224 0.96347 0.267815 17.5433 30.9583)" fill="#E6EDFD"/>
</svg>
