<svg width="20" height="20" viewBox="0 0 20 20" fill="none" xmlns="http://www.w3.org/2000/svg">
<path fill-rule="evenodd" clip-rule="evenodd" d="M1.66683 15.0002C0.555718 15.0002 0.555718 13.3335 1.66683 13.3335C2.5873 13.3335 3.3335 12.5873 3.3335 11.6668V7.50016C3.3335 3.81826 6.31827 0.833496 10.0002 0.833496C13.6821 0.833496 16.6668 3.81826 16.6668 7.50016V11.6668C16.6668 12.5873 17.413 13.3335 18.3335 13.3335C19.4446 13.3335 19.4446 15.0002 18.3335 15.0002H1.66683ZM15.0002 11.6668V7.50016C15.0002 4.73874 12.7616 2.50016 10.0002 2.50016C7.23874 2.50016 5.00016 4.73874 5.00016 7.50016V11.6668C5.00016 12.274 4.83784 12.8432 4.55422 13.3335H15.4461C15.1625 12.8432 15.0002 12.274 15.0002 11.6668ZM10.0002 19.1639C10.8915 19.1639 11.7154 18.6893 12.1627 17.9183C12.4849 17.3628 12.0841 16.6668 11.4418 16.6668H8.5585C7.91624 16.6668 7.51539 17.3628 7.83766 17.9183C8.28491 18.6893 9.10883 19.1639 10.0002 19.1639Z" fill="#235D99"/>
<mask id="mask0_1157_583" style="mask-type:luminance" maskUnits="userSpaceOnUse" x="0" y="0" width="20" height="20">
<path fill-rule="evenodd" clip-rule="evenodd" d="M1.66683 15.0002C0.555718 15.0002 0.555718 13.3335 1.66683 13.3335C2.5873 13.3335 3.3335 12.5873 3.3335 11.6668V7.50016C3.3335 3.81826 6.31827 0.833496 10.0002 0.833496C13.6821 0.833496 16.6668 3.81826 16.6668 7.50016V11.6668C16.6668 12.5873 17.413 13.3335 18.3335 13.3335C19.4446 13.3335 19.4446 15.0002 18.3335 15.0002H1.66683ZM15.0002 11.6668V7.50016C15.0002 4.73874 12.7616 2.50016 10.0002 2.50016C7.23874 2.50016 5.00016 4.73874 5.00016 7.50016V11.6668C5.00016 12.274 4.83784 12.8432 4.55422 13.3335H15.4461C15.1625 12.8432 15.0002 12.274 15.0002 11.6668ZM10.0002 19.1639C10.8915 19.1639 11.7154 18.6893 12.1627 17.9183C12.4849 17.3628 12.0841 16.6668 11.4418 16.6668H8.5585C7.91624 16.6668 7.51539 17.3628 7.83766 17.9183C8.28491 18.6893 9.10883 19.1639 10.0002 19.1639Z" fill="white"/>
</mask>
<g mask="url(#mask0_1157_583)">
<rect width="20" height="20" fill="#235D99"/>
</g>
<circle cx="16" cy="4" r="4" fill="#FF7400"/>
</svg>
