<svg width="20" height="25" viewBox="0 0 20 25" fill="none" xmlns="http://www.w3.org/2000/svg">
<path fill-rule="evenodd" clip-rule="evenodd" d="M18.0288 16.2598V6.34766C18.0288 5.27077 17.1448 4.39453 16.0579 4.39453H12.9536V4.88281C12.9536 6.49834 11.6274 7.8125 9.99711 7.8125C8.36702 7.8125 7.04065 6.49834 7.04065 4.88281V4.39453H3.94195C2.85503 4.39453 1.97097 5.27077 1.97097 6.34766V21.0938C1.97097 22.1706 2.85503 23.0469 3.94195 23.0469H16.0579C17.1448 23.0469 18.0288 22.1706 18.0288 21.0938C18.0288 20.5544 18.4702 20.1172 19.0143 20.1172C19.5586 20.1172 19.9998 20.5544 19.9998 21.0938C19.9998 23.2477 18.2315 25 16.0579 25H3.94195C1.7683 25 0 23.2477 0 21.0938V6.34766C0 4.19369 1.7683 2.44141 3.94195 2.44141H7.04084V0.976562C7.04084 0.437164 7.482 0 8.02633 0H11.9683C12.5124 0 12.9538 0.437164 12.9538 0.976562V2.44141H16.0581C18.2315 2.44141 20 4.19369 20 6.34766V16.2598C20 16.7992 19.5586 17.2363 19.0145 17.2363C18.4702 17.2363 18.0288 16.7992 18.0288 16.2598ZM9.0609 18.75V16.3086H6.59718C6.05305 16.3086 5.61169 15.8714 5.61169 15.332C5.61169 14.7926 6.05305 14.3555 6.59718 14.3555H9.0609V11.914C9.0609 11.3747 9.50225 10.9375 10.0464 10.9375C10.5907 10.9375 11.0319 11.3747 11.0319 11.914V14.3555H13.4956C14.0399 14.3555 14.4811 14.7926 14.4811 15.332C14.4811 15.8714 14.0399 16.3086 13.4956 16.3086H11.0319V18.75C11.0319 19.2894 10.5907 19.7265 10.0464 19.7265C9.50225 19.7265 9.0609 19.2894 9.0609 18.75ZM9.01163 1.95312H10.9826V4.8828C10.9826 5.42125 10.5405 5.85937 9.99711 5.85937C9.45375 5.85937 9.01163 5.42125 9.01163 4.8828V1.95312Z" fill="#5563DA"/>
</svg>
