<svg width="30" height="35" viewBox="0 0 30 35" fill="none" xmlns="http://www.w3.org/2000/svg">
<path fill-rule="evenodd" clip-rule="evenodd" d="M29.92 30.5521C29.7625 29.813 29.0203 29.3377 28.2624 29.4915C27.5042 29.645 27.0174 30.3687 27.1746 31.1081C27.2362 31.3972 27.1612 31.6955 26.9684 31.9265C26.8627 32.0531 26.6292 32.2656 26.2532 32.2656H16.9438L20.7291 22.8248C22.1076 23.5215 23.3545 24.4713 24.3939 25.6414C24.9007 26.2121 25.7861 26.2738 26.3712 25.7795C26.9564 25.285 27.0199 24.4217 26.5128 23.8507C24.7917 21.9132 22.6073 20.4678 20.1875 19.6154C21.9431 18.1721 23.0607 16.0129 23.0607 13.6035C23.0607 12.6911 22.9025 11.8005 22.5898 10.9511L23.3351 3.08952C23.3857 2.5544 23.1103 2.0401 22.6311 1.77467C20.6833 0.696678 17.688 0 14.9998 0C12.3119 0 9.31654 0.696678 7.36873 1.77467C6.88958 2.0401 6.61414 2.5544 6.66479 3.08952L7.41007 10.9511C7.09739 11.8003 6.93914 12.6911 6.93914 13.6035C6.93914 16.0156 8.05925 18.1769 9.81814 19.6202C8.19424 20.1938 6.66999 21.036 5.3229 22.1196C2.64487 24.2743 0.782754 27.2797 0.0799109 30.582C-0.152271 31.6726 0.127004 32.7922 0.846002 33.6539C1.55952 34.5095 2.61694 35 3.74663 35H26.2532C27.3753 35 28.4286 34.5087 29.1432 33.6523C29.8704 32.7805 30.1535 31.6504 29.92 30.5521ZM14.9997 29.6055L11.8918 21.8545C12.8906 21.6003 13.9327 21.4649 14.9997 21.4649C16.0601 21.4649 17.1041 21.5971 18.1098 21.8497L14.9997 29.6055ZM10.133 11.6611C9.8743 12.2772 9.74288 12.9306 9.74288 13.6035C9.74288 16.4305 12.1011 18.7304 14.9998 18.7304C17.8985 18.7304 20.2568 16.4305 20.2568 13.6035C20.2568 12.9306 20.1256 12.2772 19.8666 11.6611C19.7809 11.4574 19.747 11.236 19.7678 11.0168L20.4542 3.77549C18.9327 3.14717 16.825 2.73435 14.9998 2.73435C13.175 2.73435 11.067 3.14717 9.54547 3.77523L10.2319 11.0165C10.2527 11.236 10.2187 11.4571 10.133 11.6611ZM3.02053 31.9284C2.91238 31.7986 2.74317 31.5233 2.82504 31.138C3.60236 27.4864 6.04684 24.4877 9.27685 22.8404L13.0561 32.2657H3.74665C3.35977 32.2657 3.12567 32.0542 3.02053 31.9284ZM17.0324 9.57026C17.8067 9.57026 18.4343 8.95823 18.4343 8.20308C18.4343 7.44792 17.8067 6.83589 17.0324 6.83589H16.3315V6.1523C16.3315 5.39714 15.7039 4.78511 14.9296 4.78511C14.1553 4.78511 13.5278 5.39714 13.5278 6.1523V6.83589H12.8268C12.0525 6.83589 11.425 7.44792 11.425 8.20308C11.425 8.95823 12.0525 9.57026 12.8268 9.57026H13.5278V10.2539C13.5278 11.009 14.1553 11.621 14.9296 11.621C15.7039 11.621 16.3315 11.009 16.3315 10.2539V9.57026H17.0324Z" fill="#5563DA"/>
</svg>
