<svg width="84" height="24" viewBox="0 0 84 24" fill="none" xmlns="http://www.w3.org/2000/svg">
<path fill-rule="evenodd" clip-rule="evenodd" d="M80.8889 24H3.11111C1.40078 24 0 22.6493 0 21V3C0 1.35075 1.40078 0 3.11111 0H80.8889C82.5992 0 84 1.35075 84 3V21C84 22.6493 82.5992 24 80.8889 24ZM10.5208 5.96717C8.52121 4.85808 6.06563 6.30407 6.06563 8.59063V15.6166C6.06563 17.9031 8.52121 19.3491 10.5208 18.24L16.8543 14.7271C18.9141 13.5846 18.9141 10.6226 16.8543 9.48014L10.5208 5.96717ZM29.5042 6.23973C29.5042 6.74835 29.3487 7.15571 29.0422 7.45951C28.6899 7.81965 28.231 8.00087 27.6687 8.00087C27.1312 8.00087 26.6723 7.81661 26.2959 7.45342C25.9187 7.0849 25.7304 6.63262 25.7304 6.09126C25.7304 5.5499 25.9187 5.09762 26.2959 4.73215C26.6723 4.36591 27.1312 4.18165 27.6687 4.18165C27.9362 4.18165 28.1913 4.23571 28.4348 4.33622C28.6774 4.43748 28.875 4.57454 29.0181 4.74357L28.693 5.06488C28.4433 4.77631 28.1034 4.63393 27.6687 4.63393C27.2767 4.63393 26.9368 4.76793 26.6482 5.03823C26.3628 5.30929 26.2197 5.6603 26.2197 6.09126C26.2197 6.52222 26.3628 6.87627 26.6482 7.14733C26.9368 7.41459 27.2767 7.55164 27.6687 7.55164C28.0848 7.55164 28.4348 7.41459 28.7109 7.14429C28.8929 6.96535 28.9963 6.71866 29.0236 6.40344H27.6687V5.96334H29.4762C29.498 6.05852 29.5042 6.15065 29.5042 6.23973ZM32.3719 4.71387H30.674V5.87121H32.2047V6.31131H30.674V7.46865H32.3719V7.91711H30.1933V4.2654H32.3719V4.71387ZM34.3957 7.91711H33.915V4.71387H32.8736V4.2654H35.4379V4.71387H34.3957V7.91711ZM37.2937 7.91711V4.2654H37.7736V7.91711H37.2937ZM39.9008 7.91711H39.424V4.71387H38.3787V4.2654H40.9461V4.71387H39.9008V7.91711ZM45.801 7.44733C45.4331 7.81661 44.9773 8.00087 44.4337 8.00087C43.8869 8.00087 43.4311 7.81661 43.0632 7.44733C42.6961 7.0788 42.5133 6.62653 42.5133 6.09126C42.5133 5.55599 42.6961 5.10371 43.0632 4.73519C43.4311 4.36591 43.8869 4.18165 44.4337 4.18165C44.9742 4.18165 45.43 4.36591 45.7979 4.73824C46.1681 5.10981 46.3509 5.55904 46.3509 6.09126C46.3509 6.62653 46.1681 7.0788 45.801 7.44733ZM43.4187 7.14124C43.6956 7.41458 44.0323 7.55164 44.4337 7.55164C44.8319 7.55164 45.1718 7.41458 45.4456 7.14124C45.7217 6.86789 45.8617 6.51689 45.8617 6.09126C45.8617 5.66563 45.7217 5.31462 45.4456 5.04128C45.1718 4.76793 44.8319 4.63088 44.4337 4.63088C44.0323 4.63088 43.6956 4.76793 43.4187 5.04128C43.1426 5.31462 43.0026 5.66563 43.0026 6.09126C43.0026 6.51689 43.1426 6.86789 43.4187 7.14124ZM47.0252 7.91711V4.2654H47.6086L49.4223 7.10545H49.4433L49.4223 6.40344V4.2654H49.9022V7.91711H49.4013L47.502 4.93697H47.481L47.502 5.64203V7.91711H47.0252ZM42.3951 13.25C40.9337 13.25 39.7398 14.3388 39.7398 15.8411C39.7398 17.3312 40.9337 18.4314 42.3951 18.4314C43.8597 18.4314 45.0536 17.3312 45.0536 15.8411C45.0536 14.3388 43.8597 13.25 42.3951 13.25ZM42.3951 17.4111C41.5932 17.4111 40.9033 16.7631 40.9033 15.8411C40.9033 14.9068 41.5932 14.2703 42.3951 14.2703C43.197 14.2703 43.89 14.9068 43.89 15.8411C43.89 16.7631 43.197 17.4111 42.3951 17.4111ZM36.6014 13.25C35.1369 13.25 33.9461 14.3388 33.9461 15.8411C33.9461 17.3312 35.1369 18.4314 36.6014 18.4314C38.0652 18.4314 39.2568 17.3312 39.2568 15.8411C39.2568 14.3388 38.0652 13.25 36.6014 13.25ZM36.6014 17.4111C35.7988 17.4111 35.1066 16.7631 35.1066 15.8411C35.1066 14.9068 35.7988 14.2703 36.6014 14.2703C37.4033 14.2703 38.0932 14.9068 38.0932 15.8411C38.0932 16.7631 37.4033 17.4111 36.6014 17.4111ZM29.7072 14.0442V15.1452H32.3929C32.3143 15.7604 32.1043 16.2126 31.7823 16.5279C31.3903 16.9086 30.7798 17.3312 29.7072 17.3312C28.0544 17.3312 26.7602 16.0253 26.7602 14.4073C26.7602 12.7894 28.0544 11.4835 29.7072 11.4835C30.6009 11.4835 31.2511 11.8254 31.731 12.2686L32.5236 11.4927C31.8523 10.8653 30.9594 10.3833 29.7072 10.3833C27.4408 10.3833 25.536 12.1886 25.536 14.4073C25.536 16.6261 27.4408 18.4314 29.7072 18.4314C30.9322 18.4314 31.8523 18.0385 32.5757 17.3015C33.3169 16.5758 33.5479 15.5556 33.5479 14.7317C33.5479 14.4759 33.5261 14.2406 33.4872 14.0442H29.7072ZM57.8986 14.8977C57.68 14.3183 57.0057 13.25 55.6321 13.25C54.271 13.25 53.1378 14.3 53.1378 15.8411C53.1378 17.2923 54.2593 18.4314 55.7628 18.4314C56.9784 18.4314 57.68 17.7058 57.9686 17.2832L57.0663 16.6946C56.7653 17.1256 56.3554 17.4111 55.7628 17.4111C55.174 17.4111 54.7517 17.1469 54.481 16.6261L58.0207 15.1924L57.8986 14.8977ZM54.2897 15.7604C54.2593 14.7614 55.0822 14.2497 55.6718 14.2497C56.1338 14.2497 56.5258 14.4759 56.6564 14.7995L54.2897 15.7604ZM51.4127 18.2738H52.5762V10.6597H51.4127V18.2738ZM49.5071 13.8272H49.4682C49.2069 13.5241 48.7083 13.25 48.0768 13.25C46.7514 13.25 45.5397 14.3891 45.5397 15.8495C45.5397 17.3015 46.7514 18.4314 48.0768 18.4314C48.7083 18.4314 49.2069 18.155 49.4682 17.8428H49.5071V18.2144C49.5071 19.205 48.9666 19.7372 48.0947 19.7372C47.3838 19.7372 46.9428 19.2347 46.7608 18.8121L45.7489 19.2255C46.0406 19.9123 46.8129 20.7575 48.0947 20.7575C49.4589 20.7575 50.61 19.9717 50.61 18.0598V13.4076H49.5071V13.8272ZM48.1763 17.4111C47.3744 17.4111 46.7032 16.754 46.7032 15.8495C46.7032 14.9365 47.3744 14.2703 48.1763 14.2703C48.9666 14.2703 49.5896 14.9365 49.5896 15.8495C49.5896 16.754 48.9666 17.4111 48.1763 17.4111ZM63.3461 10.6597H60.5632V18.2738H61.7237V15.3888H63.3461C64.6349 15.3888 65.8988 14.4759 65.8988 13.0239C65.8988 11.5726 64.6318 10.6597 63.3461 10.6597ZM63.3764 14.3297H61.7237V11.7188H63.3764C64.2429 11.7188 64.7376 12.4231 64.7376 13.0239C64.7376 13.6132 64.2429 14.3297 63.3764 14.3297ZM70.5499 13.2355C69.7114 13.2355 68.8396 13.598 68.481 14.4013L69.5108 14.8238C69.7324 14.4013 70.14 14.2642 70.5709 14.2642C71.1729 14.2642 71.7834 14.6183 71.7928 15.2434V15.3233C71.5828 15.2045 71.1332 15.0287 70.5802 15.0287C69.4711 15.0287 68.341 15.6264 68.341 16.7418C68.341 17.7621 69.2494 18.4192 70.2707 18.4192C71.0516 18.4192 71.4824 18.0743 71.7531 17.673H71.7928V18.2616H72.9136V15.3408C72.9136 13.9909 71.8838 13.2355 70.5499 13.2355ZM70.4099 17.4081C70.0303 17.4081 69.5014 17.2238 69.5014 16.7631C69.5014 16.1738 70.161 15.9477 70.7319 15.9477C71.2429 15.9477 71.4824 16.0581 71.7928 16.2035C71.7018 16.9086 71.0819 17.4081 70.4099 17.4081ZM76.9969 13.4023L75.663 16.703H75.6233L74.2443 13.4023H72.9929L75.0649 18.0149L73.8827 20.5816H75.0952L78.288 13.4023H76.9969ZM66.5366 18.2738H67.7001V10.6597H66.5366V18.2738Z" fill="#235D99"/>
</svg>
