<svg width="18" height="30" viewBox="0 0 18 30" fill="none" xmlns="http://www.w3.org/2000/svg">
<path fill-rule="evenodd" clip-rule="evenodd" d="M13.2939 18.6395C13.1852 18.4939 13.0483 18.3817 12.897 18.3023C12.8633 18.2758 12.8279 18.2504 12.7904 18.227C12.2369 17.8823 11.5058 18.0466 11.1575 18.5944C9.87104 20.6168 8.694 22.2771 8.26912 22.868C8.09496 23.0033 7.96983 23.1775 7.89582 23.3686L5.23111 26.8575L3.42103 24.3823L9.95246 15.6379C10.005 15.5674 10.0477 15.4926 10.0822 15.4156C10.2536 15.1456 11.3536 13.3981 12.4708 11.34C13.5689 9.31732 14.1865 7.90421 14.5339 6.91452L15.6209 9.20425C15.5694 9.82201 15.3115 10.8932 14.4772 12.6958C14.2954 13.0886 14.0903 13.5075 13.8671 13.9403C13.5698 14.5168 13.8014 15.2227 14.384 15.5166C14.9666 15.8107 15.6797 15.5816 15.9769 15.0053C16.2149 14.5429 16.4349 14.0943 16.6305 13.6716C17.552 11.6803 18 10.1406 18 8.96484C18 8.7925 17.9616 8.62244 17.8876 8.46634L14.9863 2.35634C14.9093 2.19383 14.7957 2.05147 14.6541 1.93932C13.8504 1.30348 12.9417 0.813217 11.9763 0.484543C11.1977 0.18837 10.2892 0.0247192 9.28703 0.00320435C9.21117 0.00137329 9.13531 0 9.05921 0C8.97988 0 8.90101 0.00137329 8.82214 0.00343323C7.90206 0.0238037 7.06039 0.163879 6.32674 0.416794C5.32478 0.733109 4.38274 1.22635 3.53251 1.88599C3.36968 2.01233 3.20916 2.146 3.05536 2.2831C2.93462 2.39113 2.83748 2.52251 2.77017 2.66899L0.1057 8.48053C0.0360814 8.63274 0 8.79776 0 8.96484C0 11.4661 2.21276 15.4163 4.46669 19.0393L1.00149 23.6785C0.69503 24.0889 0.692254 24.6485 0.994552 25.0621L4.25113 29.5152C4.47132 29.8162 4.82265 29.9961 5.19827 29.9998C5.20243 30 5.20636 30 5.21053 30C5.58152 30 5.93123 29.8279 6.15512 29.5347L9.02961 25.7714L11.9039 29.5347C12.1278 29.8279 12.4777 30 12.8485 30H12.8609C13.2363 29.9961 13.5879 29.8162 13.8078 29.5152L17.0644 25.0621C17.367 24.6485 17.3642 24.0889 17.0575 23.6785L13.2939 18.6395ZM9.05922 2.34374C9.76605 2.34374 10.4528 2.45154 11.1045 2.6612C11.3414 2.75023 11.5532 2.85735 11.7366 2.98232C12.3338 3.3895 12.6119 3.96857 12.6119 4.80467C12.6119 5.04225 12.5492 5.35811 12.4365 5.73302C11.4559 5.05805 10.2832 4.68749 9.05922 4.68749C7.83523 4.68749 6.66258 5.05805 5.68191 5.73302C5.56927 5.35834 5.50659 5.04248 5.50659 4.80467C5.50659 3.96857 5.7846 3.3895 6.3818 2.98232C6.55989 2.86078 6.76528 2.75664 6.99379 2.66898C7.65182 2.45497 8.34569 2.34374 9.05922 2.34374ZM11.5153 8.00722C10.8571 7.38306 9.98232 7.03127 9.05923 7.03127C8.13592 7.03127 7.26118 7.38306 6.60269 8.00745C7.28176 9.44689 8.18796 11.0999 9.059 12.5677C9.93028 11.0999 10.8362 9.44643 11.5153 8.00722ZM2.37839 9.19648L3.51634 6.71472C3.84871 7.71104 4.47342 9.17703 5.64769 11.34C6.42298 12.768 7.1897 14.0463 7.64396 14.7855L5.98514 17.0062C4.60803 14.7567 2.5389 11.1543 2.37839 9.19648ZM10.4985 23.8076L12.8281 26.8575L14.6382 24.3823L12.2721 21.2146C11.5396 22.3231 10.9063 23.2324 10.4985 23.8076Z" fill="#5563DA"/>
</svg>
