<svg width="22" height="24" viewBox="0 0 22 24" fill="none" xmlns="http://www.w3.org/2000/svg">
<path d="M18.1833 18.9818V19.1318H18.3333H19.0476C19.5042 19.1318 19.85 19.4667 19.85 19.8545V20.7273C19.85 20.7524 19.8226 20.7955 19.7619 20.7955H13.3333H13.1833V20.9455C13.1833 22.536 11.769 23.85 10 23.85C8.23096 23.85 6.81667 22.536 6.81667 20.9455V20.7955H6.66667H0.238095C0.177384 20.7955 0.15 20.7524 0.15 20.7273V19.8545C0.15 19.4667 0.495836 19.1318 0.952381 19.1318H1.66667H1.81667V18.9818V9.70909C1.81667 5.94707 4.85371 2.82133 8.82901 2.30055L8.95952 2.28345V2.15182V1.09091C8.95952 0.583088 9.4125 0.15 10 0.15C10.5875 0.15 11.0405 0.583088 11.0405 1.09091V2.15182V2.28345L11.171 2.30055C15.1463 2.82133 18.1833 5.94707 18.1833 9.70909V18.9818ZM8.57143 20.7955H8.42143V20.9455C8.42143 21.7631 9.14107 22.4045 10 22.4045C10.8589 22.4045 11.5786 21.7631 11.5786 20.9455V20.7955H11.4286H8.57143ZM3.65952 18.9818V19.1318H3.80952H16.1905H16.3405V18.9818V9.70909C16.3405 8.14856 15.6784 6.68545 14.4793 5.58668C13.2807 4.48832 11.6905 3.88636 10 3.88636C8.30952 3.88636 6.71929 4.48832 5.52068 5.58668C4.32163 6.68545 3.65952 8.14856 3.65952 9.70909V18.9818Z" fill="black" fill-opacity="0.7" stroke="white" stroke-width="0.3"/>
<path d="M11.5 4C11.5 2.067 13.067 0.5 15 0.5H18C19.933 0.5 21.5 2.067 21.5 4C21.5 5.933 19.933 7.5 18 7.5H15C13.067 7.5 11.5 5.933 11.5 4Z" fill="#051C7D" stroke="#051C7D"/>
<path d="M16.938 6H16.386V2.574L15.45 3.144L15.21 2.754L16.452 1.986H16.938V6Z" fill="white"/>
</svg>
