<svg width="32" height="32" viewBox="0 0 32 32" fill="none" xmlns="http://www.w3.org/2000/svg">
<path d="M16 0C7.16429 0 0 7.16429 0 16C0 24.8357 7.16429 32 16 32C24.8357 32 32 24.8357 32 16C32 7.16429 24.8357 0 16 0ZM16 29.2857C8.66429 29.2857 2.71429 23.3357 2.71429 16C2.71429 8.66429 8.66429 2.71429 16 2.71429C23.3357 2.71429 29.2857 8.66429 29.2857 16C29.2857 23.3357 23.3357 29.2857 16 29.2857Z" fill="#FB1165"/>
<path d="M14.2852 22.2857C14.2852 22.7404 14.4658 23.1764 14.7873 23.4979C15.1088 23.8194 15.5448 24 15.9994 24C16.4541 24 16.8901 23.8194 17.2116 23.4979C17.5331 23.1764 17.7137 22.7404 17.7137 22.2857C17.7137 21.8311 17.5331 21.395 17.2116 21.0735C16.8901 20.752 16.4541 20.5714 15.9994 20.5714C15.5448 20.5714 15.1088 20.752 14.7873 21.0735C14.4658 21.395 14.2852 21.8311 14.2852 22.2857ZM15.1423 18.2857H16.8566C17.0137 18.2857 17.1423 18.1571 17.1423 18V8.28572C17.1423 8.12857 17.0137 8 16.8566 8H15.1423C14.9852 8 14.8566 8.12857 14.8566 8.28572V18C14.8566 18.1571 14.9852 18.2857 15.1423 18.2857Z" fill="#FB1165"/>
</svg>
