<svg width="30" height="31" viewBox="0 0 30 31" fill="none" xmlns="http://www.w3.org/2000/svg">
<path fill-rule="evenodd" clip-rule="evenodd" d="M28.8281 7.99266C28.5282 7.99266 28.2282 7.8744 27.9993 7.63789L26.1328 5.70891L24.2296 7.67574L28.7468 12.3222C29.2055 12.7943 29.2071 13.5608 28.7505 14.0348C28.5216 14.2727 28.2206 14.3915 27.9199 14.3915C27.6209 14.3915 27.3218 14.2739 27.0931 14.0388L25.8679 12.7785L23.8529 14.8463C23.6245 15.0807 23.3258 15.198 23.0273 15.198C22.7259 15.198 22.4247 15.0785 22.1955 14.8401C21.7396 14.3655 21.7424 13.5989 22.2015 13.1276L24.207 11.0699L19.3936 6.11855L8.3116 17.4995L13.1263 22.4525L14.6056 20.9376L12.9519 19.275C12.488 18.8086 12.4777 18.0418 12.9291 17.5624C13.3804 17.0832 14.1222 17.0726 14.5864 17.539L16.2707 19.2326L17.9065 17.5579L16.2094 15.8146C15.7505 15.343 15.7484 14.5762 16.2048 14.102C16.661 13.6275 17.403 13.6254 17.8621 14.097L20.3963 16.7005C20.6176 16.9281 20.7421 17.2376 20.7419 17.5602C20.7417 17.8831 20.6167 18.1924 20.3949 18.4195L13.9494 25.0193C13.721 25.2533 13.4227 25.3701 13.1245 25.3701C12.8254 25.3701 12.5262 25.2525 12.2978 25.0174L11.5704 24.2691L9.0898 26.8324C8.86092 27.0689 8.56108 27.1872 8.26102 27.1872C7.96439 27.1872 7.66753 27.0715 7.43956 26.8398L6.55379 25.9403L2.00065 30.6455C1.77177 30.8817 1.47194 31 1.17187 31C0.872038 31 0.571975 30.8817 0.343322 30.6455C-0.114441 30.1724 -0.114441 29.4057 0.343322 28.9329L4.88227 24.2424L4.0409 23.3879C3.81705 23.1606 3.69094 22.8498 3.69048 22.5256C3.69025 22.2011 3.81591 21.8901 4.03953 21.6623L6.54898 19.104L5.82297 18.3571C5.60187 18.1295 5.47759 17.8206 5.47782 17.4983C5.47782 17.1759 5.60233 16.867 5.82343 16.6397L17.7324 4.40975L16.5165 3.15908C16.0579 2.68724 16.0563 1.92047 16.5129 1.4465C16.9695 0.972534 17.7113 0.970879 18.1702 1.44272L22.5684 5.96694L24.4754 3.99633L22.6087 2.06734C22.1509 1.59456 22.1509 0.827789 22.6087 0.354767C23.0662 -0.118256 23.8082 -0.118256 24.266 0.354767L29.6568 5.92532C30.1144 6.3981 30.1144 7.16487 29.6568 7.63789C29.428 7.8744 29.1281 7.99266 28.8281 7.99266ZM6.53278 22.4189L8.25397 24.1592L9.90924 22.4566L8.21003 20.7166L6.53278 22.4189Z" fill="#5563DA"/>
</svg>
