<svg width="106" height="15" viewBox="0 0 106 15" fill="none" xmlns="http://www.w3.org/2000/svg">
<path d="M4.004 0.458C2.394 0.458 1.148 1.242 1.148 2.628C1.148 2.754 1.162 2.852 1.19 2.95L2.408 2.782C2.394 2.684 2.394 2.656 2.394 2.614C2.394 1.956 2.94 1.466 4.004 1.466C5.334 1.466 5.698 2.264 5.698 3.258V4.56C5.208 4.042 4.578 3.622 3.71 3.622C1.862 3.622 0.868 5.372 0.868 7.402C0.868 9.782 1.946 11.196 3.976 11.196C5.838 11.196 6.986 9.894 6.986 7.514V3.174C6.986 1.494 5.74 0.458 4.004 0.458ZM3.976 10.16C2.814 10.16 2.254 9.292 2.254 7.402C2.254 5.624 2.898 4.658 3.934 4.658C4.69 4.658 5.236 5.05 5.698 5.638V7.402C5.698 9.278 5.138 10.16 3.976 10.16ZM9.84309 11H11.1171C10.5291 9.432 10.2911 8.312 10.2911 6.954C10.2911 5.218 10.7811 4.49 11.6911 4.49C12.3771 4.49 12.9091 4.756 12.9091 6.156V8.732L14.1411 8.592V6.156C14.1411 4.938 14.6031 4.49 15.3171 4.49C16.0311 4.49 16.7591 4.938 16.7591 6.982C16.7591 8.312 16.4931 9.432 15.9051 11H17.1931C17.6131 9.978 18.0611 8.676 18.0611 6.968C18.0611 4.49 16.8711 3.454 15.4571 3.454C14.4491 3.454 13.7211 3.972 13.5391 5.092C13.2871 3.958 12.6431 3.454 11.4951 3.454C10.1511 3.454 8.98909 4.42 8.98909 6.968C8.98909 8.676 9.40909 9.95 9.84309 11ZM22.9395 0.458C21.3295 0.458 20.0835 1.242 20.0835 2.628C20.0835 2.754 20.0975 2.852 20.1255 2.95L21.3435 2.782C21.3295 2.684 21.3295 2.656 21.3295 2.614C21.3295 1.956 21.8755 1.466 22.9395 1.466C24.2695 1.466 24.6335 2.264 24.6335 3.258V4.56C24.1435 4.042 23.5135 3.622 22.6455 3.622C20.7975 3.622 19.8035 5.372 19.8035 7.402C19.8035 9.782 20.8815 11.196 22.9115 11.196C24.7735 11.196 25.9215 9.894 25.9215 7.514V3.174C25.9215 1.494 24.6755 0.458 22.9395 0.458ZM22.9115 10.16C21.7495 10.16 21.1895 9.292 21.1895 7.402C21.1895 5.624 21.8335 4.658 22.8695 4.658C23.6255 4.658 24.1715 5.05 24.6335 5.638V7.402C24.6335 9.278 24.0735 10.16 22.9115 10.16ZM31.5506 3.454C30.6406 3.454 29.9686 3.874 29.4786 4.392V0.458L28.1906 0.654V7.598C28.1906 9.978 29.3386 11.196 31.2006 11.196C33.2026 11.196 34.3086 9.712 34.3086 7.262C34.3086 5.078 33.3706 3.454 31.5506 3.454ZM31.2006 10.16C30.0386 10.16 29.4786 9.362 29.4786 7.486V5.484C29.9546 4.882 30.5706 4.49 31.3266 4.49C32.3346 4.49 32.9226 5.33 32.9226 7.262C32.9226 9.222 32.3626 10.16 31.2006 10.16ZM39.1817 0.458C37.5717 0.458 36.3257 1.242 36.3257 2.628C36.3257 2.754 36.3397 2.852 36.3677 2.95L37.5857 2.782C37.5717 2.684 37.5717 2.656 37.5717 2.614C37.5717 1.956 38.1177 1.466 39.1817 1.466C40.5117 1.466 40.8757 2.264 40.8757 3.258V4.56C40.3857 4.042 39.7557 3.622 38.8877 3.622C37.0397 3.622 36.0457 5.372 36.0457 7.402C36.0457 9.782 37.1237 11.196 39.1537 11.196C41.0157 11.196 42.1637 9.894 42.1637 7.514V3.174C42.1637 1.494 40.9177 0.458 39.1817 0.458ZM39.1537 10.16C37.9917 10.16 37.4317 9.292 37.4317 7.402C37.4317 5.624 38.0757 4.658 39.1117 4.658C39.8677 4.658 40.4137 5.05 40.8757 5.638V7.402C40.8757 9.278 40.3157 10.16 39.1537 10.16ZM47.2081 3.622H45.9201C45.9201 5.946 48.2301 6.52 48.2301 8.48C48.2301 9.418 47.7681 10.16 46.6761 10.16C45.6821 10.16 45.0941 9.53 45.0941 8.592C45.0941 8.158 45.1641 7.766 45.2761 7.43L44.1841 7.136C43.9461 7.57 43.7921 8.074 43.7921 8.634C43.7921 9.922 44.7301 11.196 46.6761 11.196C48.3141 11.196 49.5881 10.174 49.5881 8.508C49.5881 6.212 47.2081 5.218 47.2081 3.622ZM52.1029 11H53.3769C52.7889 9.432 52.5509 8.312 52.5509 6.954C52.5509 5.386 53.0409 4.658 53.9789 4.658C54.6369 4.658 55.1689 4.98 55.1689 6.324V8.732L56.4009 8.592V6.324C56.4009 5.12 56.8769 4.658 57.6329 4.658C58.3049 4.658 59.0189 5.106 59.0189 6.842C59.0189 8.312 58.7529 9.432 58.1649 11H59.4529C59.8729 9.978 60.3209 8.676 60.3209 6.828C60.3209 4.658 59.1449 3.622 57.7449 3.622C56.7229 3.622 56.0229 4.126 55.7989 5.26C55.5469 4.126 54.9169 3.622 53.9929 3.622C53.4889 3.622 52.9569 3.748 52.4529 4.49C52.8589 3.216 53.8809 2.684 54.5529 2.46C55.8409 2.04 57.1429 1.998 58.1229 1.452L57.5769 0.485999C56.8629 0.933999 55.3509 1.06 54.2729 1.424C52.1449 2.138 51.2489 3.706 51.2489 6.688C51.2489 8.676 51.6689 9.95 52.1029 11ZM64.9473 3.454C63.3793 3.454 62.1193 4.448 62.1193 5.946C62.1193 6.408 62.2593 6.912 62.4553 7.318L63.6173 7.08C63.5193 6.772 63.4353 6.408 63.4353 5.96C63.4353 5.232 63.8413 4.49 64.9473 4.49C66.0393 4.49 66.4453 5.288 66.4453 6.31V10.79C66.4453 12.05 66.0253 12.988 64.8493 12.988C63.7853 12.988 63.2253 12.274 63.2253 11.224C63.2253 10.608 63.3373 10.118 63.4913 9.67L62.3853 9.376C62.1333 9.88 61.9233 10.524 61.9233 11.224C61.9233 12.638 62.8053 14.024 64.8493 14.024C66.6833 14.024 67.7333 12.722 67.7333 10.944V6.226C67.7333 4.518 66.5433 3.454 64.9473 3.454ZM73.6672 3.51C73.7512 3.342 73.8072 3.132 73.8072 2.88C73.8072 1.704 72.6172 1.522 72.6172 0.514L71.3572 0.654C71.3572 1.97 72.5472 2.068 72.5472 2.95C72.5472 3.188 72.5332 3.356 72.4912 3.482C70.6852 3.706 69.6632 5.218 69.6632 7.318C69.6632 9.656 70.8532 11.168 72.9532 11.168C75.0532 11.168 76.2432 9.614 76.2432 7.304C76.2432 5.218 75.3192 3.818 73.6672 3.51ZM72.9532 10.132C71.7212 10.132 71.0492 9.236 71.0492 7.318C71.0492 5.386 71.7352 4.49 72.9672 4.49C74.1852 4.49 74.8572 5.386 74.8572 7.304C74.8572 9.236 74.1852 10.132 72.9532 10.132ZM80.6563 3.454C79.0883 3.454 77.8283 4.448 77.8283 5.946C77.8283 6.408 77.9683 6.912 78.1643 7.318L79.3263 7.08C79.2283 6.772 79.1443 6.408 79.1443 5.96C79.1443 5.232 79.5503 4.49 80.6563 4.49C81.7483 4.49 82.1543 5.288 82.1543 6.31V10.79C82.1543 12.05 81.7343 12.988 80.5583 12.988C79.4943 12.988 78.9343 12.274 78.9343 11.224C78.9343 10.608 79.0463 10.118 79.2003 9.67L78.0943 9.376C77.8423 9.88 77.6323 10.524 77.6323 11.224C77.6323 12.638 78.5143 14.024 80.5583 14.024C82.3923 14.024 83.4423 12.722 83.4423 10.944V6.226C83.4423 4.518 82.2523 3.454 80.6563 3.454ZM95.4242 3.454C94.4442 3.454 93.7302 3.972 93.5482 5.022C93.2962 3.958 92.7502 3.454 91.7002 3.454C90.7482 3.454 90.1042 3.972 89.9222 5.022C89.6702 3.958 88.9842 3.454 87.9622 3.454C86.6322 3.454 85.4422 4.42 85.4422 6.828C85.4422 9.796 87.4022 11.154 89.5582 11.616C88.6342 11.616 88.0322 11.742 87.3182 12.064L87.6962 13.226C88.5082 12.75 89.3342 12.428 90.3702 12.428C91.5182 12.428 92.5822 12.778 93.7022 14.024L94.5142 13.338C93.7022 12.19 91.8962 11.588 90.7762 11.21C89.0542 10.636 86.7302 9.88 86.7302 6.87C86.7302 5.316 87.2202 4.49 88.1022 4.49C88.8022 4.49 89.2922 4.938 89.2922 5.988V8.732L90.5242 8.592V5.988C90.5242 4.938 91.0422 4.49 91.7282 4.49C92.4142 4.49 92.9182 4.938 92.9182 5.988V8.732L94.1502 8.62V5.988C94.1502 4.938 94.6682 4.49 95.3262 4.49C96.0122 4.49 96.7122 4.938 96.7122 6.702C96.7122 7.934 96.5722 8.774 96.2782 9.754L97.3982 10.048C97.7762 9.208 98.0142 8.2 98.0142 6.688C98.0142 4.49 96.7822 3.454 95.4242 3.454ZM99.7567 6.926C99.7567 8.648 100.205 9.978 100.639 11H101.913C101.381 9.586 101.059 8.298 101.059 6.926C101.059 5.246 101.745 4.49 102.767 4.49C103.775 4.49 104.447 5.246 104.447 6.926C104.447 8.298 104.125 9.586 103.593 11H104.867C105.301 9.978 105.749 8.648 105.749 6.926C105.749 4.826 104.657 3.454 102.767 3.454C100.877 3.454 99.7567 4.896 99.7567 6.926Z" fill="black" fill-opacity="0.6"/>
</svg>
