<svg width="33" height="34" viewBox="0 0 33 34" fill="none" xmlns="http://www.w3.org/2000/svg">
<path d="M1 17.5026H10.3492V11.8901C10.3219 11.4154 10.4968 10.466 11.4153 10.466C12.3339 10.466 12.5088 11.4154 12.4815 11.8901V23.199C12.4541 23.6736 12.6291 24.623 13.5476 24.623C14.4661 24.623 14.8051 23.6736 14.8598 23.199V2.59162C14.8325 2.06108 14.9746 1 15.7619 1C16.5492 1 16.746 2.06108 16.746 2.59162V30.9895C16.746 31.6597 16.9429 33 17.7302 33C18.5175 33 18.769 31.6597 18.7963 30.9895V13.9005C18.769 13.4258 18.9439 12.4764 19.8624 12.4764C20.781 12.4764 20.9559 13.4258 20.9286 13.9005V18.9267C20.9286 19.2897 21.1254 20.0157 21.9127 20.0157C22.7 20.0157 22.8968 19.2897 22.8968 18.9267V17C22.9242 16.6649 23.1265 15.9948 23.7169 15.9948C24.3074 15.9948 24.5097 16.6649 24.537 17V17.7539H32" stroke="#346DF2" stroke-width="1.5" stroke-linecap="round"/>
</svg>
