<svg width="34" height="34" viewBox="0 0 34 34" fill="none" xmlns="http://www.w3.org/2000/svg">
<path fill-rule="evenodd" clip-rule="evenodd" d="M34 17C34 18.1004 33.1082 18.9922 32.0078 18.9922C31.4179 18.9922 30.888 18.7356 30.5233 18.3281H25.7988C25.0652 18.3281 24.4707 17.7336 24.4707 17C24.4707 12.8807 21.1193 9.5293 17 9.5293C12.8807 9.5293 9.5293 12.8807 9.5293 17C9.5293 21.1193 12.8807 24.4707 17 24.4707C18.0353 24.4707 19.041 24.2601 19.9665 23.8598L19.9773 23.8544C19.9824 23.8518 19.9876 23.8491 19.993 23.8468L19.9986 23.8446L20.0011 23.8437C20.0038 23.8428 20.0066 23.8418 20.0093 23.8406C20.7654 23.5078 21.4669 23.0479 22.086 22.4718C22.1135 22.438 22.1431 22.4054 22.1745 22.3737C22.6679 21.8803 23.4523 21.8573 23.974 22.3026L23.9841 22.3115L23.9893 22.316C24.0109 22.3347 24.0324 22.3533 24.0528 22.3737L27.6805 26.0014C28.2265 25.9713 28.7827 26.1643 29.1998 26.5814C29.9778 27.3596 29.9778 28.6208 29.1998 29.3988C28.4216 30.177 27.1604 30.177 26.3825 29.3988C25.9654 28.9817 25.7721 28.4258 25.8022 27.8797L23.0469 25.1244C22.7818 25.3223 22.5083 25.5062 22.2272 25.6761L22.8767 27.1845C23.167 27.8582 22.8562 28.6395 22.1825 28.9295C22.0113 29.0034 21.8329 29.0382 21.6578 29.0382C21.1434 29.0382 20.6536 28.7378 20.4373 28.2354L19.7922 26.7373C19.3146 26.8738 18.8254 26.9752 18.3284 27.0401V30.5233C18.7359 30.888 18.9924 31.4177 18.9924 32.0078C18.9924 33.1079 18.1004 34 17.0003 34C15.8999 34 15.0081 33.1079 15.0081 32.0078C15.0081 31.4177 15.2646 30.888 15.6721 30.5233V27.0398C15.172 26.9739 14.6836 26.8717 14.2091 26.7355L13.563 28.2354C13.3466 28.7376 12.8569 29.0382 12.3425 29.0382C12.1674 29.0382 11.9889 29.0034 11.818 28.9295C11.1441 28.6395 10.8333 27.8582 11.1236 27.1845L11.7752 25.672C11.4525 25.4767 11.1417 25.2637 10.8437 25.0349L7.99884 27.8797C8.02893 28.4258 7.83568 28.9819 7.41856 29.399C6.64062 30.177 5.37917 30.177 4.60123 29.399C3.82329 28.6208 3.82329 27.3596 4.60123 26.5817C5.01834 26.1646 5.57449 25.9713 6.12053 26.0014L8.96536 23.1566C8.73657 22.8585 8.52361 22.548 8.32828 22.2251L5.62222 23.3908C5.45128 23.4645 5.27281 23.4995 5.09772 23.4995C4.58307 23.4995 4.09358 23.1989 3.87724 22.6964C3.58698 22.0228 3.89799 21.2414 4.57166 20.9514L7.26474 19.7911C7.12856 19.3167 7.02635 18.8282 6.96046 18.3281H3.47673C3.11201 18.7356 2.58206 18.9922 1.99219 18.9922C0.891815 18.9922 0 18.1004 0 17C0 15.8999 0.891815 15.0078 1.99219 15.0078C2.58206 15.0078 3.11201 15.2644 3.47673 15.6719H6.96021C7.02609 15.172 7.1283 14.6833 7.26448 14.2089L5.76463 13.5627C5.09097 13.2727 4.78021 12.4914 5.07048 11.8177C5.36049 11.1441 6.1418 10.833 6.81546 11.1233L8.32802 11.7749C8.4987 11.493 8.68262 11.2198 8.87898 10.9565L6.12027 8.1978C5.57423 8.22789 5.01808 8.0349 4.60097 7.61778C3.82303 6.83958 3.82303 5.57838 4.60097 4.80045C5.37917 4.02225 6.64037 4.02225 7.41856 4.80045C7.83568 5.21756 8.02867 5.77371 7.99858 6.31949L10.7311 9.05226C11.0629 8.79001 11.4115 8.54799 11.7749 8.32828L10.6092 5.62222C10.3189 4.94856 10.6299 4.16725 11.3036 3.87698C11.9772 3.58672 12.7586 3.89774 13.0486 4.5714L14.2089 7.26448C14.6833 7.1283 15.1718 7.02609 15.6719 6.96021V3.47673C15.2644 3.11201 15.0078 2.58206 15.0078 1.99219C15.0078 0.891815 15.8996 0 17 0C18.1001 0 18.9922 0.891815 18.9922 1.99219C18.9922 2.58206 18.7356 3.11201 18.3281 3.47673V6.96021C18.828 7.02609 19.3167 7.1283 19.7911 7.26448L20.437 5.76463C20.7273 5.09097 21.5086 4.78021 22.1823 5.07048C22.8559 5.36049 23.1667 6.1418 22.8767 6.81546L22.2251 8.32802C22.5478 8.52335 22.8585 8.73631 23.1566 8.9651L25.8022 6.31949C25.7719 5.77345 25.9651 5.2173 26.3822 4.80019C27.1602 4.02225 28.4216 4.02225 29.1996 4.80019C29.9775 5.57838 29.9775 6.83958 29.1996 7.61778C28.7824 8.0349 28.2263 8.22789 27.6803 8.1978L25.0346 10.8434C25.2634 11.1415 25.4767 11.452 25.6717 11.7749L27.1843 11.1233C27.8579 10.833 28.6393 11.1441 28.9295 11.8177C29.2198 12.4914 28.9088 13.2727 28.2351 13.5627L26.7355 14.2089C26.8717 14.6833 26.9739 15.1718 27.0395 15.6719H30.523C30.888 15.2644 31.4177 15.0078 32.0076 15.0078C33.1082 15.0078 34 15.8996 34 17ZM29.4636 20.9667L27.5454 20.0741C26.88 19.7647 26.0901 20.0529 25.7807 20.718C25.4712 21.3831 25.7594 22.1729 26.4245 22.4824L28.343 23.375C28.5243 23.4596 28.7147 23.4992 28.9025 23.4992C29.4029 23.4992 29.8823 23.2149 30.1074 22.7314C30.4169 22.0663 30.1287 21.2762 29.4636 20.9667ZM13.8125 19.125C12.7121 19.125 11.8203 18.2332 11.8203 17.1328C11.8203 16.0324 12.7121 15.1406 13.8125 15.1406C14.9129 15.1406 15.8047 16.0324 15.8047 17.1328C15.8047 18.2332 14.9129 19.125 13.8125 19.125ZM20.4853 14.0781C20.4853 13.1611 19.7421 12.418 18.8251 12.418C17.9084 12.418 17.165 13.1611 17.165 14.0781C17.165 14.9951 17.9084 15.7383 18.8251 15.7383C19.7421 15.7383 20.4853 14.9951 20.4853 14.0781ZM21.0508 19.125C21.0508 19.8586 20.4562 20.4531 19.7227 20.4531C18.9891 20.4531 18.3945 19.8586 18.3945 19.125C18.3945 18.3914 18.9891 17.7969 19.7227 17.7969C20.4562 17.7969 21.0508 18.3914 21.0508 19.125Z" fill="#5563DA"/>
</svg>
