<svg width="20" height="22" viewBox="0 0 20 22" fill="none" xmlns="http://www.w3.org/2000/svg">
<path d="M14.1823 2.75616V19.0062C14.1823 20.8153 15.4173 21.8337 16.7715 21.8337C18.0065 21.8337 19.3606 20.9778 19.3606 19.0062V2.87533C19.3606 1.20699 18.1256 0.166992 16.7715 0.166992C15.4173 0.166992 14.1823 1.31533 14.1823 2.75616ZM7.41146 11.0003V19.0062C7.41146 20.8262 8.66813 21.8337 10.0006 21.8337C11.2356 21.8337 12.5898 20.9778 12.5898 19.0062V11.1195C12.5898 9.45116 11.3548 8.41116 10.0006 8.41116C8.64646 8.41116 7.41146 9.55949 7.41146 11.0003ZM3.22979 16.6662C4.65979 16.6662 5.81896 17.8253 5.81896 19.2445C5.81896 19.9312 5.54617 20.5897 5.06061 21.0753C4.57505 21.5609 3.91648 21.8337 3.22979 21.8337C2.5431 21.8337 1.88454 21.5609 1.39897 21.0753C0.913411 20.5897 0.640625 19.9312 0.640625 19.2445C0.640625 17.8253 1.79979 16.6662 3.22979 16.6662Z" fill="#C2C9D1"/>
</svg>
