<svg width="29" height="29" viewBox="0 0 29 29" fill="none" xmlns="http://www.w3.org/2000/svg">
<path d="M0.625 2.9375C0.625 2.32419 0.868638 1.73599 1.30232 1.30232C1.73599 0.868638 2.32419 0.625 2.9375 0.625H26.0625C26.6758 0.625 27.264 0.868638 27.6977 1.30232C28.1314 1.73599 28.375 2.32419 28.375 2.9375V5.25C28.375 5.86331 28.1314 6.45151 27.6977 6.88518C27.264 7.31886 26.6758 7.5625 26.0625 7.5625H2.9375C2.32419 7.5625 1.73599 7.31886 1.30232 6.88518C0.868638 6.45151 0.625 5.86331 0.625 5.25V2.9375ZM2.16667 9.875H26.8333V22.5938C26.8333 24.127 26.2242 25.5975 25.14 26.6817C24.0559 27.7659 22.5854 28.375 21.0521 28.375H7.94792C6.41463 28.375 4.94415 27.7659 3.85996 26.6817C2.77576 25.5975 2.16667 24.127 2.16667 22.5938V9.875ZM11.8021 12.9583C11.4954 12.9583 11.2013 13.0802 10.9845 13.297C10.7677 13.5138 10.6458 13.8079 10.6458 14.1146C10.6458 14.4212 10.7677 14.7153 10.9845 14.9322C11.2013 15.149 11.4954 15.2708 11.8021 15.2708H17.1979C17.5046 15.2708 17.7987 15.149 18.0155 14.9322C18.2323 14.7153 18.3542 14.4212 18.3542 14.1146C18.3542 13.8079 18.2323 13.5138 18.0155 13.297C17.7987 13.0802 17.5046 12.9583 17.1979 12.9583H11.8021Z" fill="#9660DB"/>
</svg>
