<svg width="20" height="20" viewBox="0 0 20 20" fill="none" xmlns="http://www.w3.org/2000/svg">
<path d="M0.25 1.875C0.25 1.44402 0.421205 1.0307 0.725952 0.725952C1.0307 0.421205 1.44402 0.25 1.875 0.25H18.125C18.556 0.25 18.9693 0.421205 19.274 0.725952C19.5788 1.0307 19.75 1.44402 19.75 1.875V3.5C19.75 3.93098 19.5788 4.3443 19.274 4.64905C18.9693 4.9538 18.556 5.125 18.125 5.125H1.875C1.44402 5.125 1.0307 4.9538 0.725952 4.64905C0.421205 4.3443 0.25 3.93098 0.25 3.5V1.875ZM1.33333 6.75H18.6667V15.6875C18.6667 16.7649 18.2387 17.7983 17.4768 18.5601C16.7149 19.322 15.6816 19.75 14.6042 19.75H5.39583C4.31839 19.75 3.28508 19.322 2.52321 18.5601C1.76135 17.7983 1.33333 16.7649 1.33333 15.6875V6.75ZM8.10417 8.91667C7.88868 8.91667 7.68202 9.00227 7.52964 9.15464C7.37727 9.30702 7.29167 9.51368 7.29167 9.72917C7.29167 9.94466 7.37727 10.1513 7.52964 10.3037C7.68202 10.4561 7.88868 10.5417 8.10417 10.5417H11.8958C12.1113 10.5417 12.318 10.4561 12.4704 10.3037C12.6227 10.1513 12.7083 9.94466 12.7083 9.72917C12.7083 9.51368 12.6227 9.30702 12.4704 9.15464C12.318 9.00227 12.1113 8.91667 11.8958 8.91667H8.10417Z" fill="#C2C9D1"/>
</svg>
