<svg width="22" height="22" viewBox="0 0 22 22" fill="none" xmlns="http://www.w3.org/2000/svg">
<path d="M11.0001 0.166748C5.02658 0.166748 0.166748 5.02658 0.166748 11.0001C0.166748 16.9736 5.02658 21.8334 11.0001 21.8334C16.9736 21.8334 21.8334 16.9736 21.8334 11.0001C21.8334 5.02658 16.9736 0.166748 11.0001 0.166748ZM12.0834 17.5001H9.91675V15.3334H12.0834V17.5001ZM13.1407 12.208C12.9284 12.3792 12.7237 12.5427 12.5612 12.7052C12.1192 13.1462 12.0845 13.547 12.0834 13.5643V13.7084H9.91675V13.5275C9.91675 13.3997 9.94816 12.2524 11.0282 11.1723C11.2395 10.9611 11.5017 10.7466 11.7768 10.5234C12.572 9.87883 13.0942 9.40866 13.0942 8.76083C13.0816 8.21355 12.8553 7.69294 12.4637 7.31038C12.0722 6.92782 11.5464 6.7137 10.999 6.71384C10.4516 6.71398 9.92596 6.92837 9.5346 7.31113C9.14323 7.6939 8.91722 8.21463 8.90491 8.76192H6.73825C6.73825 6.41217 8.65033 4.50008 11.0001 4.50008C13.3498 4.50008 15.2619 6.41217 15.2619 8.76192C15.2619 10.492 13.9847 11.5244 13.1407 12.208Z" fill="#C2C9D1"/>
</svg>
