<svg width="25" height="26" viewBox="0 0 25 26" fill="none" xmlns="http://www.w3.org/2000/svg">
<path d="M24.1676 21.32L16.1535 9.06642V3.20883H18.0153V0H6.64708V3.21208H8.52417V9.06967L0.494768 21.32C0.194538 21.7763 0.0239911 22.3048 0.00117017 22.8495C-0.0216507 23.3942 0.104103 23.935 0.365127 24.4145C0.626151 24.894 1.01274 25.2945 1.484 25.5736C1.95525 25.8527 2.49365 26 3.04224 26H21.6104C22.1599 25.9992 22.6991 25.8508 23.1709 25.5707C23.6427 25.2906 24.0297 24.8891 24.2909 24.4086C24.5521 23.928 24.678 23.3863 24.6551 22.8406C24.6323 22.2949 24.4616 21.7654 24.1611 21.3081L24.1687 21.32H24.1676ZM23.1811 23.8138C23.0284 24.0935 22.8026 24.3271 22.5275 24.4899C22.2524 24.6527 21.9382 24.7388 21.618 24.739H3.04224C2.72065 24.7395 2.40492 24.6534 2.12853 24.4901C1.85214 24.3267 1.62538 24.092 1.47229 23.8109C1.3192 23.5298 1.24549 23.2128 1.25897 22.8935C1.27245 22.5742 1.37262 22.2644 1.54886 21.9971L1.5445 22.0036L9.77338 9.43692V3.20667H14.8814V9.44017L23.1016 22.0068C23.2869 22.2787 23.3981 22.6146 23.3981 22.9764C23.3981 23.2852 23.3174 23.5755 23.1757 23.8268L23.1801 23.8182L23.1811 23.8138Z" fill="#C2C9D1"/>
<path d="M15.7099 13.3804H8.96132L2.79702 22.8032C2.76507 22.8508 2.74694 22.9062 2.74464 22.9633C2.74233 23.0205 2.75593 23.0772 2.78394 23.1271L2.78285 23.126C2.83735 23.2203 2.93763 23.2831 3.05318 23.2842H21.6191C21.674 23.2842 21.7279 23.2696 21.7752 23.242C21.8225 23.2144 21.8616 23.1747 21.8884 23.1271L21.8895 23.126C21.9176 23.0763 21.9311 23.0197 21.9286 22.9626C21.9261 22.9056 21.9077 22.8504 21.8753 22.8032L21.8764 22.8043L15.7099 13.3804Z" fill="#C2C9D1"/>
</svg>
