<svg width="27" height="28" viewBox="0 0 27 28" fill="none" xmlns="http://www.w3.org/2000/svg">
<g clip-path="url(#clip0_217_1083)">
<path d="M26.0268 22.96L17.3962 9.76383V3.45567H19.4012V0H7.1585V3.45917H9.17998V9.76733L0.53294 22.96C0.209615 23.4514 0.0259492 24.0205 0.00137287 24.6072C-0.0232035 25.1938 0.112223 25.7761 0.393326 26.2925C0.674429 26.809 1.09076 27.2403 1.59826 27.5408C2.10577 27.8414 2.68559 28 3.27637 28H23.2728C23.8647 27.9991 24.4453 27.8394 24.9534 27.5377C25.4615 27.236 25.8782 26.8036 26.1595 26.2861C26.4409 25.7686 26.5764 25.1852 26.5518 24.5975C26.5272 24.0098 26.3434 23.4397 26.0198 22.9472L26.028 22.96H26.0268ZM24.9644 25.6457C24.7999 25.9469 24.5567 26.1984 24.2605 26.3737C23.9642 26.5491 23.6258 26.6417 23.281 26.642H3.27637C2.93004 26.6425 2.59003 26.5499 2.29237 26.3739C1.99472 26.1979 1.75052 25.9452 1.58565 25.6425C1.42079 25.3398 1.34141 24.9984 1.35593 24.6545C1.37045 24.3107 1.47832 23.9771 1.66811 23.6892L1.66342 23.6962L10.5253 10.1628V3.45333H16.0262V10.1663L24.8787 23.6997C25.0783 23.9925 25.198 24.3542 25.198 24.7438C25.198 25.0763 25.1112 25.389 24.9585 25.6597L24.9632 25.6503L24.9644 25.6457Z" fill="#6369F0"/>
<path d="M16.9184 14.4094H9.65072L3.01225 24.5571C2.97784 24.6083 2.95832 24.668 2.95584 24.7295C2.95335 24.7911 2.968 24.8521 2.99816 24.9059L2.99699 24.9048C3.05568 25.0063 3.16368 25.0739 3.28812 25.0751H23.2822C23.3413 25.0751 23.3993 25.0594 23.4503 25.0297C23.5013 24.9999 23.5433 24.9572 23.5722 24.9059L23.5733 24.9048C23.6036 24.8511 23.6182 24.7902 23.6155 24.7288C23.6128 24.6673 23.5929 24.6079 23.5581 24.5571L23.5592 24.5583L16.9184 14.4094Z" fill="#6369F0"/>
</g>
<defs>
<clipPath id="clip0_217_1083">
<rect width="27" height="28" fill="white"/>
</clipPath>
</defs>
</svg>
