<svg width="18" height="22" viewBox="0 0 18 22" fill="none" xmlns="http://www.w3.org/2000/svg">
<path d="M14.4173 3.41699V5.58366C15.2793 5.58366 16.1059 5.92607 16.7154 6.53556C17.3249 7.14505 17.6673 7.9717 17.6673 8.83366V20.7503C17.6673 21.0376 17.5532 21.3132 17.35 21.5164C17.1469 21.7195 16.8713 21.8337 16.584 21.8337H1.41732C1.13 21.8337 0.85445 21.7195 0.651286 21.5164C0.448121 21.3132 0.333984 21.0376 0.333984 20.7503V8.83366C0.333984 7.9717 0.676394 7.14505 1.28589 6.53556C1.89538 5.92607 2.72203 5.58366 3.58398 5.58366V3.41699H14.4173ZM10.084 9.91699H7.91732V12.0837H5.75065V14.2503H7.91623L7.91732 16.417H10.084L10.0829 14.2503H12.2507V12.0837H10.084V9.91699ZM16.584 0.166992V2.33366H1.41732V0.166992H16.584Z" fill="#C2C9D1"/>
</svg>
