<svg width="30" height="29" viewBox="0 0 30 29" fill="none" xmlns="http://www.w3.org/2000/svg">
<path d="M27.1875 6.5H22.5V3.6875C22.5 2.13477 21.2402 0.875 19.6875 0.875H10.3125C8.75977 0.875 7.5 2.13477 7.5 3.6875V6.5H2.8125C1.25977 6.5 0 7.75977 0 9.3125V26.1875C0 27.7402 1.25977 29 2.8125 29H27.1875C28.7402 29 30 27.7402 30 26.1875V9.3125C30 7.75977 28.7402 6.5 27.1875 6.5ZM11.25 4.625H18.75V6.5H11.25V4.625ZM20.625 19.1562C20.625 19.4141 20.4141 19.625 20.1562 19.625H16.875V22.9062C16.875 23.1641 16.6641 23.375 16.4062 23.375H13.5938C13.3359 23.375 13.125 23.1641 13.125 22.9062V19.625H9.84375C9.58594 19.625 9.375 19.4141 9.375 19.1562V16.3438C9.375 16.0859 9.58594 15.875 9.84375 15.875H13.125V12.5938C13.125 12.3359 13.3359 12.125 13.5938 12.125H16.4062C16.6641 12.125 16.875 12.3359 16.875 12.5938V15.875H20.1562C20.4141 15.875 20.625 16.0859 20.625 16.3438V19.1562Z" fill="#54B5B5"/>
</svg>
