<svg width="26" height="25" viewBox="0 0 26 25" fill="none" xmlns="http://www.w3.org/2000/svg">
<path d="M23.5625 5.5H19.5V3.0625C19.5 1.7168 18.4082 0.625 17.0625 0.625H8.9375C7.5918 0.625 6.5 1.7168 6.5 3.0625V5.5H2.4375C1.0918 5.5 0 6.5918 0 7.9375V22.5625C0 23.9082 1.0918 25 2.4375 25H23.5625C24.9082 25 26 23.9082 26 22.5625V7.9375C26 6.5918 24.9082 5.5 23.5625 5.5ZM9.75 3.875H16.25V5.5H9.75V3.875ZM17.875 16.4688C17.875 16.6922 17.6922 16.875 17.4688 16.875H14.625V19.7188C14.625 19.9422 14.4422 20.125 14.2188 20.125H11.7812C11.5578 20.125 11.375 19.9422 11.375 19.7188V16.875H8.53125C8.30781 16.875 8.125 16.6922 8.125 16.4688V14.0312C8.125 13.8078 8.30781 13.625 8.53125 13.625H11.375V10.7812C11.375 10.5578 11.5578 10.375 11.7812 10.375H14.2188C14.4422 10.375 14.625 10.5578 14.625 10.7812V13.625H17.4688C17.6922 13.625 17.875 13.8078 17.875 14.0312V16.4688Z" fill="#54B5B5"/>
</svg>
